<svg width="166" height="217" viewBox="0 0 166 217" fill="none" xmlns="http://www.w3.org/2000/svg">
<path d="M1.08203 21.7406C1.08203 21.7406 3.40203 17.4606 7.08203 11.5506C7.08203 11.5506 18.902 20.3806 18.802 19.8906C18.702 19.4006 1.08203 21.7406 1.08203 21.7406Z" fill="#21005D"/>
<path d="M1.08194 22.2406C0.995024 22.2408 0.909546 22.2184 0.833942 22.1756C0.758338 22.1327 0.695217 22.0708 0.650799 21.9961C0.60638 21.9214 0.582201 21.8364 0.580646 21.7496C0.579092 21.6627 0.600215 21.5768 0.641933 21.5006C0.641933 21.5006 3.01194 17.1406 6.69194 11.2806C6.76932 11.1673 6.8876 11.0885 7.02193 11.0606C7.08961 11.0473 7.15934 11.0485 7.22654 11.064C7.29375 11.0795 7.35692 11.109 7.41193 11.1506C11.5119 14.2106 18.2619 19.1506 18.9519 19.4306C19.2819 19.5106 19.3019 19.6406 19.3319 19.7906C19.3511 19.8933 19.3394 19.9993 19.2985 20.0954C19.2576 20.1914 19.1892 20.2733 19.1019 20.3306C19.0019 20.3906 18.9119 20.4506 18.6219 20.3306C17.5119 20.1806 7.36193 21.4106 1.14193 22.2406H1.08194ZM7.25193 12.2406C4.69193 16.3306 2.82193 19.6006 1.99193 21.0806C10.5619 19.9606 14.8619 19.4906 16.9919 19.3706C15.4819 18.3506 12.6219 16.2806 7.25193 12.2706V12.2406Z" fill="#21005D"/>
<path d="M157.692 200.091L163.592 190.251L155.432 182.871L157.692 200.091Z" fill="#21005D"/>
<path d="M157.692 200.591H157.572C157.469 200.571 157.375 200.519 157.304 200.441C157.234 200.364 157.191 200.265 157.182 200.161L154.912 182.951C154.899 182.848 154.917 182.744 154.966 182.653C155.014 182.561 155.09 182.487 155.182 182.441C155.271 182.392 155.373 182.372 155.473 182.385C155.574 182.397 155.668 182.441 155.742 182.511L163.912 189.891C163.998 189.969 164.054 190.074 164.07 190.189C164.086 190.304 164.062 190.421 164.002 190.521L158.102 200.361C158.058 200.43 157.997 200.487 157.926 200.527C157.854 200.567 157.774 200.589 157.692 200.591ZM156.102 184.131L158.002 198.581L162.952 190.331L156.102 184.131Z" fill="#21005D"/>
<path d="M153.872 202.131L58.872 215.661C56.9241 215.914 54.9494 215.467 53.3008 214.399C51.6521 213.331 50.4368 211.712 49.872 209.831L0.742021 25.9606C-0.257979 22.1506 2.17202 18.8006 6.20202 18.4706L103.062 10.6606C104.978 10.5678 106.87 11.1204 108.434 12.23C109.999 13.3395 111.146 14.9419 111.692 16.7806L158.832 194.571C159.077 195.396 159.139 196.265 159.013 197.116C158.888 197.968 158.578 198.782 158.106 199.501C157.634 200.221 157.011 200.829 156.279 201.283C155.548 201.737 154.726 202.027 153.872 202.131Z" fill="#21005D"/>
<path d="M57.8219 216.271C55.9323 216.263 54.0952 215.648 52.5811 214.518C51.067 213.387 49.9561 211.8 49.4119 209.991L0.261939 26.1306C-0.00746158 25.2235 -0.0700506 24.2675 0.07878 23.333C0.227611 22.3984 0.584074 21.5092 1.12194 20.7306C1.7031 19.9365 2.45278 19.2807 3.31723 18.8105C4.18168 18.3402 5.13948 18.0671 6.12194 18.0106L103.022 10.1306C105.055 10.0299 107.063 10.6163 108.723 11.7953C110.383 12.9743 111.598 14.6775 112.172 16.6306L159.312 194.411C159.573 195.316 159.635 196.267 159.495 197.199C159.356 198.131 159.017 199.021 158.502 199.811C157.988 200.579 157.315 201.228 156.528 201.713C155.742 202.198 154.859 202.508 153.942 202.621L58.9419 216.161C58.5714 216.221 58.1972 216.258 57.8219 216.271ZM103.652 11.1306H103.102L6.24193 18.9406C5.39782 18.9799 4.57305 19.2067 3.82754 19.6045C3.08202 20.0024 2.43448 20.5612 1.93194 21.2406C1.48318 21.9025 1.18676 22.6557 1.06399 23.4459C0.941218 24.2361 0.995162 25.0437 1.22194 25.8106L50.3819 209.731C50.912 211.495 52.0516 213.013 53.5975 214.015C55.1434 215.017 56.995 215.437 58.8219 215.201L153.822 201.661C154.599 201.565 155.346 201.304 156.014 200.895C156.681 200.486 157.254 199.939 157.692 199.291C158.125 198.618 158.41 197.86 158.527 197.069C158.644 196.277 158.591 195.47 158.372 194.701L111.202 16.9106C110.718 15.2719 109.725 13.8293 108.369 12.7906C107.012 11.7518 105.36 11.1706 103.652 11.1306Z" fill="#21005D"/>
<path d="M160.052 192.011L65.0519 205.541C63.1035 205.799 61.1269 205.353 59.4773 204.285C57.8277 203.216 56.6132 201.594 56.0519 199.711L6.92195 15.8106C5.92195 12.0006 8.35195 8.6506 12.382 8.3206L109.252 0.510605C111.167 0.418309 113.057 0.971275 114.62 2.08092C116.183 3.19057 117.328 4.79268 117.872 6.6306L165.012 184.421C165.262 185.248 165.328 186.12 165.205 186.975C165.082 187.83 164.773 188.648 164.301 189.371C163.828 190.095 163.203 190.706 162.469 191.162C161.735 191.618 160.91 191.907 160.052 192.011Z" fill="white"/>
<path d="M64.002 206.131C62.1128 206.121 60.2764 205.506 58.7626 204.376C57.2488 203.245 56.1375 201.659 55.592 199.851L6.44197 15.9406C6.17472 15.0332 6.11324 14.0776 6.26201 13.1435C6.41079 12.2093 6.76607 11.3201 7.30197 10.5406C7.8846 9.74797 8.63462 9.09335 9.49876 8.62326C10.3629 8.15316 11.32 7.87912 12.302 7.82061L109.172 0.0106159C111.204 -0.0877453 113.209 0.499681 114.867 1.67853C116.525 2.85737 117.738 4.55921 118.312 6.51062L165.462 184.291C165.72 185.196 165.781 186.147 165.642 187.078C165.502 188.01 165.164 188.9 164.652 189.691C164.136 190.46 163.462 191.108 162.673 191.593C161.884 192.078 161.001 192.388 160.082 192.501L65.082 206.041C64.7242 206.093 64.3635 206.123 64.002 206.131ZM109.832 0.990615H109.292L12.422 8.80061C11.5793 8.83995 10.756 9.06684 10.0121 9.46473C9.26819 9.86262 8.62246 10.4215 8.12197 11.1006C7.66894 11.7605 7.36916 12.5134 7.24459 13.3041C7.12001 14.0948 7.17379 14.9034 7.40197 15.6706L56.572 199.581C57.1038 201.344 58.2438 202.861 59.7892 203.863C61.3347 204.864 63.1853 205.285 65.012 205.051L160.012 191.511C160.789 191.415 161.536 191.154 162.204 190.745C162.871 190.336 163.444 189.789 163.882 189.141C164.317 188.469 164.603 187.711 164.721 186.92C164.838 186.128 164.784 185.32 164.562 184.551L117.392 6.76062C116.904 5.123 115.909 3.68229 114.551 2.64554C113.192 1.6088 111.54 1.0294 109.832 0.990615Z" fill="#21005D"/>
<path d="M16.302 27.9106L115.472 19.3206L153.522 162.781L55.812 175.771L16.302 27.9106Z" fill="#6750A4"/>
<path d="M120.792 190.941L102.262 193.551C101.084 193.696 99.8937 193.417 98.9027 192.765C97.9116 192.113 97.1847 191.129 96.8519 189.991L95.0119 183.131C94.8578 182.607 94.8211 182.055 94.9041 181.515C94.9872 180.976 95.1881 180.461 95.4926 180.007C95.7971 179.554 96.1977 179.173 96.6659 178.892C97.1342 178.611 97.6586 178.436 98.2019 178.381L116.772 175.861C117.938 175.733 119.112 176.02 120.088 176.671C121.065 177.322 121.781 178.295 122.112 179.421L123.932 186.271C124.077 186.786 124.109 187.327 124.025 187.855C123.94 188.384 123.742 188.888 123.443 189.333C123.144 189.777 122.752 190.151 122.295 190.429C121.837 190.706 121.324 190.881 120.792 190.941Z" fill="white"/>
<path d="M101.632 194.131C100.441 194.119 99.2864 193.723 98.3387 193.003C97.3911 192.282 96.7013 191.275 96.3719 190.131L94.5719 183.211C94.4041 182.621 94.3655 182.002 94.4587 181.397C94.5519 180.791 94.7747 180.212 95.1119 179.701C95.4595 179.185 95.9148 178.75 96.4466 178.427C96.9783 178.105 97.5738 177.901 98.1919 177.831L116.752 175.321C118.038 175.175 119.335 175.488 120.413 176.205C121.49 176.923 122.28 177.998 122.642 179.241L124.472 186.091C124.643 186.678 124.684 187.296 124.592 187.901C124.499 188.507 124.276 189.084 123.937 189.594C123.598 190.104 123.151 190.533 122.629 190.852C122.106 191.171 121.52 191.372 120.912 191.441L102.382 194.041C102.135 194.093 101.884 194.123 101.632 194.131ZM117.372 176.311C117.192 176.296 117.012 176.296 116.832 176.311L98.2719 178.821C97.7962 178.876 97.3378 179.032 96.9273 179.278C96.5168 179.525 96.1638 179.856 95.8919 180.251C95.6341 180.645 95.4648 181.091 95.3957 181.557C95.3267 182.023 95.3595 182.498 95.4919 182.951L97.3319 189.861C97.6339 190.881 98.2879 191.762 99.1777 192.346C100.067 192.93 101.135 193.179 102.192 193.051L120.722 190.451L120.792 190.941L120.722 190.451C121.19 190.396 121.64 190.241 122.043 189.996C122.445 189.751 122.789 189.422 123.052 189.031C123.31 188.64 123.479 188.198 123.549 187.735C123.618 187.272 123.585 186.799 123.452 186.351L121.632 179.501C121.36 178.578 120.8 177.766 120.034 177.184C119.267 176.603 118.334 176.283 117.372 176.271V176.311Z" fill="#ACCCF8"/>
<path d="M45.6418 15.5806C45.5092 15.5806 45.3821 15.5279 45.2883 15.4342C45.1945 15.3404 45.1418 15.2132 45.1418 15.0806C45.1418 14.948 45.1945 14.8208 45.2883 14.727C45.3821 14.6333 45.5092 14.5806 45.6418 14.5806L73.9718 12.2206C74.037 12.2137 74.1029 12.22 74.1656 12.239C74.2283 12.2581 74.2866 12.2895 74.3369 12.3315C74.3873 12.3734 74.4287 12.4251 74.4588 12.4833C74.4888 12.5416 74.5069 12.6053 74.5118 12.6706C74.5173 12.7363 74.5097 12.8024 74.4895 12.8652C74.4693 12.928 74.4369 12.9861 74.3942 13.0363C74.3514 13.0865 74.2992 13.1277 74.2404 13.1576C74.1817 13.1876 74.1176 13.2056 74.0518 13.2106L45.7218 15.5806H45.6418Z" fill="#ACCCF8"/>
<path d="M77.9019 12.8806C77.7692 12.8806 77.6421 12.8279 77.5483 12.7342C77.4545 12.6404 77.4019 12.5132 77.4019 12.3806C77.4019 12.248 77.4545 12.1208 77.5483 12.0271C77.6421 11.9333 77.7692 11.8806 77.9019 11.8806L81.6618 11.5606C81.7945 11.55 81.9259 11.5925 82.0271 11.6788C82.1284 11.765 82.1912 11.888 82.2019 12.0206C82.2125 12.1532 82.17 12.2846 82.0837 12.3859C81.9974 12.4872 81.8745 12.55 81.7419 12.5606L77.9919 12.8706L77.9019 12.8806Z" fill="#ACCCF8"/>
<path d="M51.782 97.1306C51.6785 97.1301 51.5775 97.0988 51.492 97.0406C51.3861 96.9641 51.3135 96.8499 51.2893 96.7215C51.2652 96.5932 51.2911 96.4604 51.362 96.3506L96.232 30.8406C96.3062 30.7306 96.4212 30.6545 96.5515 30.6292C96.6819 30.6039 96.8169 30.6314 96.927 30.7056C97.037 30.7799 97.1131 30.8948 97.1384 31.0252C97.1637 31.1555 97.1362 31.2906 97.062 31.4006L52.192 96.9106C52.1454 96.9766 52.0841 97.0309 52.013 97.069C51.9418 97.1072 51.8627 97.1283 51.782 97.1306Z" fill="white"/>
<path d="M88.2218 152.501C88.1183 152.5 88.0174 152.469 87.9318 152.411C87.8777 152.373 87.8317 152.324 87.7964 152.269C87.761 152.213 87.7371 152.151 87.7259 152.086C87.7148 152.021 87.7166 151.954 87.7314 151.89C87.7461 151.825 87.7735 151.764 87.8118 151.711L114.812 112.921C114.89 112.819 115.005 112.752 115.131 112.733C115.258 112.713 115.387 112.743 115.492 112.816C115.598 112.889 115.671 113 115.697 113.126C115.723 113.251 115.699 113.382 115.632 113.491L88.6318 152.291C88.5847 152.355 88.5231 152.408 88.4519 152.445C88.3807 152.481 88.3018 152.5 88.2218 152.501Z" fill="white"/>
<path d="M80.8218 115.751C80.7217 115.749 80.6243 115.717 80.5418 115.661C80.4873 115.624 80.4406 115.578 80.4044 115.523C80.3682 115.469 80.3433 115.407 80.3312 115.343C80.3191 115.279 80.32 115.213 80.3338 115.149C80.3477 115.085 80.3742 115.024 80.4118 114.971L90.9618 99.2806C91.0351 99.171 91.1488 99.0948 91.278 99.0686C91.4072 99.0424 91.5416 99.0683 91.6518 99.1406C91.7621 99.2158 91.8385 99.3312 91.8647 99.462C91.8909 99.5929 91.8647 99.7288 91.7918 99.8406L81.2418 115.531C81.1943 115.598 81.1314 115.653 81.0584 115.691C80.9853 115.73 80.9043 115.75 80.8218 115.751Z" fill="white"/>
<path d="M126.687 107.108L53.9398 117.715C52.6328 117.806 51.335 117.439 50.2693 116.677C49.2035 115.915 48.4363 114.805 48.0994 113.539L34.2324 65.1351C34.0181 64.5857 33.9307 63.995 33.9766 63.407C34.0225 62.8191 34.2005 62.2491 34.4975 61.7396C34.7944 61.2301 35.2026 60.7943 35.6915 60.4645C36.1804 60.1348 36.7375 59.9197 37.3211 59.8354L109.978 50.8275C111.231 50.7806 112.463 51.1571 113.476 51.8963C114.489 52.6354 115.223 53.6941 115.561 54.9017L129.51 101.81C130.281 104.432 129.012 106.77 126.687 107.108Z" fill="white"/>
<path d="M110.213 50.8126C111.425 50.8286 112.601 51.2351 113.564 51.9716C114.527 52.7082 115.228 53.7357 115.561 54.9016L129.511 101.81C130.278 104.388 129.011 106.755 126.686 107.093L53.9391 117.7L53.6011 117.722C52.3498 117.725 51.1323 117.316 50.1374 116.557C49.1426 115.798 48.4259 114.732 48.0987 113.524L34.2316 65.1203C34.0174 64.5709 33.9299 63.9802 33.9758 63.3923C34.0217 62.8044 34.1998 62.2344 34.4967 61.7249C34.7937 61.2154 35.2018 60.7795 35.6907 60.4498C36.1797 60.1201 36.7367 59.905 37.3204 59.8206L109.977 50.8128L110.212 50.7979L110.213 50.8126ZM110.119 49.3284L109.796 49.3488L37.1395 58.3566C36.3967 58.4402 35.6811 58.6853 35.043 59.0747C34.4048 59.4641 33.8597 59.9884 33.4456 60.6109C32.988 61.336 32.6942 62.1522 32.5847 63.0026C32.4752 63.853 32.5528 64.7171 32.8119 65.5345L46.6789 113.939C47.0984 115.469 48.0156 116.816 49.2859 117.767C50.5562 118.719 52.1071 119.22 53.6937 119.191L54.1493 119.163L126.898 108.57C127.6 108.469 128.273 108.218 128.87 107.834C129.467 107.451 129.974 106.943 130.357 106.346C130.796 105.61 131.073 104.79 131.169 103.939C131.266 103.088 131.18 102.227 130.917 101.412L117.039 54.4838C116.621 52.9939 115.724 51.683 114.487 50.7532C113.25 49.8234 111.741 49.3263 110.194 49.3384L110.119 49.3284Z" fill="#21005D"/>
<path d="M85.4235 94.5283C85.2687 94.5405 85.1146 94.498 84.988 94.4082L34.2684 62.1968C34.106 62.0895 33.9916 61.9233 33.9493 61.7333C33.9071 61.5433 33.9402 61.3443 34.0418 61.1783C34.0923 61.0949 34.1591 61.0225 34.2383 60.9656C34.3176 60.9087 34.4075 60.8685 34.5027 60.8473C34.5978 60.8261 34.6963 60.8245 34.7922 60.8424C34.8881 60.8604 34.9793 60.8976 35.0603 60.9518L85.1837 92.832L112.638 51.368C112.747 51.2046 112.916 51.0912 113.109 51.0528C113.302 51.0144 113.502 51.054 113.665 51.1631C113.828 51.2721 113.942 51.4416 113.98 51.6343C114.019 51.8269 113.979 52.0269 113.87 52.1903L86.0102 94.2405C85.9404 94.3296 85.8514 94.4018 85.7498 94.4516C85.6482 94.5014 85.5366 94.5277 85.4235 94.5283Z" fill="#EADDFF"/>
<path d="M129.153 106.2C129.005 106.207 128.859 106.17 128.733 106.094L91.793 84.1676C91.7095 84.1195 91.6365 84.0552 91.5783 83.9784C91.5201 83.9015 91.4778 83.8139 91.4541 83.7205C91.4303 83.6271 91.4255 83.5299 91.4399 83.4346C91.4543 83.3393 91.4877 83.2479 91.538 83.1657C91.6383 82.9966 91.8007 82.8736 91.9906 82.823C92.1805 82.7725 92.3827 82.7983 92.5537 82.8951L129.539 104.833C129.672 104.914 129.776 105.035 129.836 105.179C129.896 105.323 129.909 105.483 129.872 105.634C129.836 105.786 129.752 105.922 129.633 106.023C129.515 106.124 129.367 106.185 129.212 106.197L129.153 106.2Z" fill="#EADDFF"/>
<path d="M50.6134 117.6C50.4434 117.607 50.2756 117.561 50.1329 117.468C49.9769 117.35 49.8734 117.175 49.8446 116.981C49.8159 116.787 49.8641 116.59 49.9789 116.431L72.6774 85.6534C72.7927 85.4955 72.966 85.3899 73.1592 85.3597C73.3523 85.3295 73.5496 85.3773 73.7075 85.4926C73.8654 85.6079 73.9711 85.7811 74.0012 85.9743C74.0314 86.1675 73.9836 86.3647 73.8683 86.5226L51.1698 117.3C51.1052 117.388 51.0218 117.461 50.9255 117.513C50.8293 117.565 50.7226 117.595 50.6134 117.6Z" fill="#EADDFF"/>
</svg>
