<svg width="187" height="178" viewBox="0 0 187 178" fill="none" xmlns="http://www.w3.org/2000/svg">
<g clip-path="url(#clip0_54376_36379)">
<path d="M72.9498 12.8167C77.4415 4.48332 84.6915 -1.29168 95.4498 2.17499C96.3984 2.5563 97.3931 2.81126 98.4081 2.93332C99.4396 2.87284 100.466 2.7504 101.483 2.56666C106.333 2.16666 109.916 6.86666 112.275 11.1167C116.658 19.0417 124.666 29.8 123.108 39.325C121.9 46.7083 114.958 51.825 107.95 54.4083C100.047 57.3229 91.5161 58.1019 83.2165 56.6667C79.0498 55.95 74.7415 54.55 71.7415 51.525C67.5748 47.3083 66.7415 40.8167 67.0582 34.8583C67.4998 28.2 69.2915 19.6417 72.9498 12.8167Z" fill="white"/>
<path d="M91.308 57.775C88.5736 57.7748 85.8442 57.5406 83.1497 57.075C77.8913 56.175 74.0747 54.4583 71.483 51.825C67.8413 48.1666 66.2247 42.5 66.6663 34.9C67.1413 27.0166 69.358 18.6916 72.608 12.6416C76.4163 5.55831 83.483 -2.07502 95.533 1.80831L96.108 2.00831C96.8407 2.29265 97.609 2.47492 98.3913 2.54998C98.9906 2.55317 99.5885 2.49171 100.175 2.36665C100.575 2.29998 101.008 2.22498 101.416 2.19165C105.408 1.84998 109.175 4.79998 112.575 10.9333C113.358 12.35 114.241 13.85 115.2 15.4416C119.458 22.5666 124.758 31.4333 123.45 39.3916C122.408 45.8333 116.666 51.5833 108.058 54.7666C102.698 56.7584 97.0259 57.7772 91.308 57.775ZM73.333 13C70.133 18.9583 67.9413 27.1666 67.4997 34.9416C67.058 42.2916 68.5997 47.7916 72.0663 51.2916C74.5663 53.7916 78.2413 55.4583 83.333 56.2916C91.5622 57.708 100.02 56.9261 107.85 54.025C116.183 50.9333 121.758 45.4 122.766 39.2333C124.025 31.5583 118.808 22.8166 114.616 15.7916C113.666 14.2 112.766 12.7 111.975 11.275C108.733 5.44164 105.225 2.61664 101.55 2.94164C101.158 2.94164 100.775 3.04165 100.375 3.10831C99.7043 3.25734 99.0197 3.33278 98.333 3.33331C97.4755 3.25769 96.6334 3.0584 95.833 2.74165L95.2663 2.54998C83.7163 -1.17502 76.933 6.19165 73.2497 13.0166L73.333 13Z" fill="#21005D"/>
<path d="M183.566 131.983C183.566 131.983 141.066 70.825 132.25 62.8166C119.566 51.35 74.5496 48.9583 65.4079 51.3166C49.2412 55.4833 37.9912 80.7333 37.9912 80.7333L64.8079 88.75C64.8662 109.492 66.9412 131.25 66.9412 131.25L183.566 131.983Z" fill="#6750A4"/>
<path d="M46.0915 24.3083C46.1915 24.025 45.9999 18.6417 44.5165 15.7583C43.0332 12.875 43.2415 12.375 44.4415 11.4417C45.6415 10.5083 46.9415 11.4417 48.7915 13.7667C50.6415 16.0917 51.1082 19.6583 50.6499 22.2583L46.0915 24.3083Z" fill="white"/>
<path d="M46.0917 24.725C46.0288 24.7243 45.9669 24.7094 45.9106 24.6814C45.8544 24.6534 45.8051 24.6131 45.7667 24.5634C45.7282 24.5137 45.7015 24.4559 45.6885 24.3944C45.6755 24.3329 45.6766 24.2693 45.6917 24.2083C45.75 23.7166 45.5417 18.6583 44.15 15.95C42.7583 13.2416 42.6917 12.2666 44.1917 11.1083C45.9083 9.79163 47.6333 11.65 49.1167 13.5083C51.1 16.0083 51.525 19.725 51.0583 22.3333C51.0451 22.4001 51.0163 22.4628 50.9743 22.5163C50.9323 22.5699 50.8783 22.6128 50.8167 22.6416L46.2667 24.6833C46.2117 24.7088 46.1522 24.723 46.0917 24.725ZM45.4083 11.5C45.1477 11.5081 44.8978 11.6051 44.7 11.775C43.75 12.5 43.4333 12.75 44.8833 15.5666C46.1167 17.9583 46.4917 21.9583 46.55 23.6583L50.3 21.9916C50.6667 19.5833 50.2583 16.2583 48.4917 14.0416C46.95 12.1333 46.0667 11.5 45.4083 11.5V11.5Z" fill="#21005D"/>
<path d="M43.4915 43.4333C43.6832 43.1583 43.9582 23.75 44.6082 23.2833C45.2582 22.8167 52.8749 20.5 56.2165 20.5C59.5582 20.5 60.3832 21.8917 59.1915 23.1917C59.1915 23.1917 63.0915 24.9583 60.4915 28.3C60.4915 28.3 62.7165 30.6167 60.4915 32.85C62.2915 35.2583 60.4915 38.3333 58.5499 39.9833C56.2999 41.85 53.0915 41.8083 53.1082 45.1083C53.1499 56.8333 54.1999 68.675 53.3415 80.3917C52.7832 88.0083 48.3415 98.9667 40.4332 97.1083C32.5249 95.25 31.9832 80.675 34.2999 72.9417C36.6165 65.2083 43.4915 43.4333 43.4915 43.4333Z" fill="white"/>
<path d="M42.1829 97.7333C41.5601 97.7304 40.9395 97.6578 40.3329 97.5166C39.2263 97.2264 38.1937 96.705 37.3032 95.9868C36.4127 95.2686 35.6844 94.37 35.1662 93.35C32.0996 88.05 32.1162 78.7499 33.8996 72.8249C36.1996 65.2083 43.0662 43.5083 43.0662 43.2916C43.1246 42.9499 43.1996 40.4666 43.2829 37.8499C43.6996 24.6666 43.9162 23.2333 44.3329 22.9333C45.0246 22.4416 52.7579 20.075 56.1829 20.075C58.2246 20.075 59.5746 20.5833 59.9746 21.5083C60.0778 21.7601 60.1144 22.0342 60.0808 22.3042C60.0472 22.5743 59.9447 22.8311 59.7829 23.05C60.6896 23.5621 61.3686 24.3988 61.6829 25.3916C61.7844 25.8923 61.7751 26.4091 61.6556 26.9058C61.5361 27.4024 61.3094 27.8669 60.9912 28.2666C61.5475 28.9053 61.854 29.7238 61.854 30.5708C61.854 31.4178 61.5475 32.2362 60.9912 32.8749C62.5079 35.2916 61.0746 38.3916 58.7829 40.2916C58.0307 40.8743 57.2109 41.3639 56.3412 41.7499C54.7412 42.5249 53.4829 43.1416 53.4912 45.0833C53.4912 49.1249 53.6412 53.2583 53.7746 57.2583C54.162 64.9678 54.1453 72.6922 53.7246 80.3999C53.3246 85.7916 50.9662 93.0166 46.7079 96.1416C45.4107 97.1462 43.8234 97.7045 42.1829 97.7333ZM43.8496 43.5666C43.5412 44.5499 36.9162 65.5833 34.6829 73.0583C32.9496 78.8166 32.9246 87.8166 35.8746 92.9249C36.3379 93.8421 36.9904 94.6505 37.7891 95.2969C38.5877 95.9433 39.5144 96.413 40.5079 96.6749C41.4894 96.922 42.5142 96.9423 43.5047 96.7344C44.4952 96.5265 45.4253 96.0958 46.2246 95.475C50.2746 92.5 52.5246 85.5416 52.8912 80.3416C53.312 72.6617 53.3287 64.965 52.9412 57.2833C52.8079 53.2833 52.6662 49.1416 52.6579 45.0833C52.6579 42.5833 54.3246 41.75 55.9912 40.9833C56.8015 40.6272 57.5654 40.1738 58.2662 39.6333C59.9329 38.2416 61.8412 35.3416 60.1412 33.075C60.0761 32.9981 60.0403 32.9007 60.0403 32.8C60.0403 32.6992 60.0761 32.6018 60.1412 32.5249C62.0496 30.6249 60.2162 28.6416 60.1412 28.5583C60.0767 28.4828 60.0412 28.3868 60.0412 28.2875C60.0412 28.1881 60.0767 28.0921 60.1412 28.0166C60.4458 27.6966 60.672 27.3103 60.8022 26.8881C60.9323 26.4659 60.9628 26.0193 60.8913 25.5833C60.5535 24.6806 59.874 23.9471 58.9996 23.5416C58.9395 23.5163 58.8866 23.4763 58.8459 23.4254C58.8052 23.3745 58.7778 23.3142 58.7663 23.25C58.7526 23.1853 58.7546 23.1183 58.772 23.0546C58.7894 22.9908 58.8217 22.9321 58.8662 22.8833C59.0746 22.6583 59.3996 22.2166 59.2329 21.8249C59.0662 21.4333 58.1329 20.8916 56.1996 20.8916C52.9912 20.8916 45.8246 23.0833 44.8996 23.5583C44.5496 24.6333 44.2829 33.2083 44.1329 37.8583C43.9913 42.7416 43.9579 43.3916 43.8829 43.5916L43.8496 43.5666Z" fill="#21005D"/>
<path d="M53.058 24.7249C52.9475 24.7415 52.835 24.7135 52.7451 24.6471C52.6553 24.5807 52.5955 24.4813 52.5789 24.3708C52.5623 24.2603 52.5903 24.1477 52.6567 24.0579C52.7231 23.968 52.8225 23.9082 52.9331 23.8916C54.9863 23.3936 57.0679 23.0207 59.1664 22.775C59.2758 22.7608 59.3863 22.7905 59.4738 22.8577C59.5612 22.9248 59.6185 23.024 59.633 23.1333C59.6412 23.1876 59.6384 23.243 59.6247 23.2962C59.6109 23.3494 59.5866 23.3993 59.5531 23.4428C59.5197 23.4864 59.4778 23.5228 59.43 23.5498C59.3821 23.5768 59.3293 23.5938 59.2747 23.5999C57.2364 23.8537 55.2138 24.2209 53.2164 24.6999C53.1664 24.721 53.1121 24.7296 53.058 24.7249V24.7249Z" fill="#21005D"/>
<path d="M53.8496 29.7333C53.739 29.7554 53.6243 29.7327 53.5305 29.6702C53.4368 29.6077 53.3717 29.5105 53.3496 29.4C53.3275 29.2895 53.3502 29.1747 53.4127 29.0809C53.4752 28.9872 53.5724 28.9221 53.6829 28.9C55.5912 28.0666 60.2746 27.8583 60.4662 27.85C60.521 27.8466 60.5758 27.8541 60.6277 27.8719C60.6795 27.8898 60.7274 27.9177 60.7684 27.9541C60.8094 27.9905 60.8429 28.0346 60.8668 28.084C60.8907 28.1333 60.9047 28.1869 60.9079 28.2416C60.9124 28.353 60.8731 28.4617 60.7983 28.5443C60.7234 28.6269 60.6192 28.6768 60.5079 28.6833C60.4662 28.6833 55.7829 28.9166 54.0162 29.6666C53.9664 29.7012 53.9094 29.724 53.8496 29.7333V29.7333Z" fill="#21005D"/>
<path d="M55.5246 34.5167C55.4409 34.5179 55.3588 34.494 55.2889 34.4479C55.2191 34.4018 55.1647 34.3358 55.1329 34.2583C55.0937 34.1564 55.0951 34.0433 55.137 33.9425C55.1789 33.8416 55.258 33.7608 55.3579 33.7167C56.9974 33.1041 58.6993 32.6737 60.4329 32.4333C60.5423 32.4191 60.6528 32.4489 60.7403 32.5161C60.8278 32.5832 60.8851 32.6823 60.8996 32.7917C60.9078 32.846 60.9049 32.9014 60.8912 32.9546C60.8775 33.0078 60.8531 33.0577 60.8197 33.1012C60.7862 33.1448 60.7443 33.1812 60.6965 33.2082C60.6486 33.2352 60.5958 33.2522 60.5412 33.2583C58.8828 33.4925 57.2541 33.9032 55.6829 34.4833C55.6331 34.5056 55.5791 34.517 55.5246 34.5167V34.5167Z" fill="#21005D"/>
<path d="M63.5913 113.442C63.5354 113.437 63.481 113.422 63.431 113.397C63.381 113.372 63.3366 113.337 63.3002 113.294C63.2638 113.251 63.2361 113.202 63.2189 113.149C63.2016 113.095 63.1951 113.039 63.1996 112.983L66.8247 65.4833C66.8289 65.4263 66.8443 65.3708 66.8701 65.3198C66.8958 65.2688 66.9314 65.2234 66.9748 65.1862C67.0182 65.1491 67.0685 65.1208 67.1228 65.1032C67.1771 65.0855 67.2344 65.0787 67.2913 65.0833C67.348 65.0875 67.4032 65.1029 67.4537 65.1288C67.5043 65.1547 67.5492 65.1904 67.5857 65.2339C67.6222 65.2774 67.6496 65.3278 67.6663 65.3821C67.683 65.4364 67.6887 65.4935 67.683 65.55L64.058 113.05C64.0538 113.107 64.0383 113.162 64.0125 113.212C63.9866 113.263 63.9509 113.308 63.9074 113.344C63.8638 113.381 63.8135 113.408 63.7592 113.425C63.7049 113.442 63.6478 113.447 63.5913 113.442V113.442Z" fill="#21005D"/>
<path d="M88.1662 68.0083C91.1746 71.75 95.6662 74.4167 100.508 74.4917C101.135 74.5264 101.763 74.4416 102.358 74.2417C103.173 73.8932 103.868 73.3138 104.358 72.575C106.541 69.575 106.633 65.5333 106.083 61.8667C105.691 59.2917 104.941 56.5917 102.991 54.8667C100.7 52.8417 97.3746 52.65 94.3162 52.5667C91.2579 52.4833 84.1662 51.5917 83.0329 55.3583C81.9746 58.8 86.1496 65.5 88.1662 68.0083Z" fill="#21005D"/>
<path d="M100.691 74.8583H100.5C95.8747 74.7833 91.1581 72.3083 87.8831 68.2417C85.7081 65.5417 81.5831 58.825 82.6747 55.25C83.7664 51.675 89.5914 51.9167 93.0581 52.1333L94.3331 52.1917C97.7081 52.2917 100.925 52.5417 103.233 54.5833C105.541 56.625 106.116 59.6417 106.441 61.8083C107.15 66.4917 106.55 70.1417 104.658 72.7833C104.132 73.5868 103.378 74.214 102.491 74.5833C101.913 74.7844 101.303 74.8776 100.691 74.8583V74.8583ZM90.2164 52.775C87.283 52.775 84.0747 53.2 83.3831 55.4667C82.3747 58.725 86.4414 65.2833 88.4497 67.7833C91.5914 71.6833 96.0997 74.05 100.508 74.125C101.092 74.1555 101.677 74.0792 102.233 73.9C102.983 73.5744 103.621 73.0353 104.066 72.35C105.833 69.9167 106.391 66.4 105.733 61.9167C105.425 59.8583 104.783 56.9167 102.766 55.1333C100.75 53.35 97.5581 53.0167 94.3247 52.925C93.9497 52.925 93.4914 52.925 93.0414 52.8667C92.1914 52.825 91.2164 52.775 90.2164 52.775V52.775Z" fill="#21005D"/>
<path d="M107.633 29.4916C107.941 28.453 108.463 27.4905 109.167 26.6666C109.527 26.2612 110.003 25.9765 110.531 25.8513C111.059 25.726 111.613 25.7663 112.117 25.9666C112.467 26.1754 112.761 26.4668 112.974 26.8154C113.186 27.164 113.309 27.5593 113.333 27.9666C113.375 28.7861 113.238 29.6048 112.933 30.3666C112.47 31.8153 111.667 33.1323 110.592 34.2083C110.058 34.7429 109.42 35.1628 108.718 35.4422C108.016 35.7216 107.264 35.8547 106.508 35.8333" fill="white"/>
<path d="M106.825 36.1583H106.483C106.395 36.1498 106.314 36.1078 106.257 36.0411C106.2 35.9743 106.17 35.8879 106.175 35.8C106.177 35.7557 106.188 35.7124 106.207 35.6726C106.227 35.6328 106.254 35.5974 106.287 35.5685C106.321 35.5397 106.36 35.5179 106.402 35.5047C106.445 35.4915 106.489 35.487 106.533 35.4916C107.246 35.5159 107.956 35.3939 108.619 35.133C109.283 34.8722 109.886 34.478 110.391 33.975C111.427 32.9366 112.199 31.6649 112.641 30.2666C112.932 29.5508 113.063 28.78 113.025 28.0083C113.005 27.6535 112.898 27.309 112.713 27.0053C112.529 26.7015 112.272 26.4479 111.966 26.2666C111.525 26.1002 111.043 26.0717 110.585 26.1847C110.127 26.2978 109.713 26.5472 109.4 26.9C108.736 27.6984 108.24 28.6224 107.941 29.6166C107.927 29.6575 107.904 29.695 107.874 29.7269C107.845 29.7588 107.809 29.7844 107.769 29.8023C107.73 29.8202 107.687 29.8299 107.644 29.8309C107.6 29.832 107.557 29.8243 107.516 29.8083C107.434 29.7782 107.366 29.7166 107.329 29.637C107.291 29.5574 107.287 29.4662 107.316 29.3833C107.643 28.2977 108.194 27.2927 108.933 26.4333C109.343 25.9795 109.884 25.6633 110.48 25.5276C111.076 25.3919 111.7 25.4433 112.266 25.675C112.672 25.9053 113.014 26.2332 113.262 26.6289C113.509 27.0247 113.654 27.4759 113.683 27.9416C113.729 28.7954 113.587 29.6489 113.266 30.4416C112.794 31.9559 111.959 33.3319 110.833 34.45C109.763 35.5078 108.329 36.1186 106.825 36.1583V36.1583Z" fill="#21005D"/>
<path d="M101.908 43.9416L103.2 56.7916C103.2 56.7916 102.575 64.1 94.5413 62.625C92.1818 62.1694 89.9526 61.1961 88.0145 59.7753C86.0763 58.3545 84.4774 56.5215 83.333 54.4083L83.633 31.35C83.583 30.4083 85.5413 27.1833 84.6163 19.0333C87.3702 18.7517 90.0352 17.8993 92.4413 16.5305C94.8475 15.1617 96.942 13.3065 98.5913 11.0833C98.5913 11.0833 102.316 15.6833 103.883 17.1083C105.14 18.1609 106.26 19.3676 107.216 20.7C109.716 24.45 109.608 30.5666 109.008 34.8666C108.425 38.4 106.375 44.0333 101.908 43.9416Z" fill="white"/>
<path d="M96.5496 63.225C95.8534 63.2204 95.1589 63.1534 94.4746 63.025C92.0489 62.5516 89.7579 61.5479 87.7655 60.0857C85.773 58.6234 84.1285 56.7388 82.9496 54.5666C82.9374 54.5118 82.9374 54.4548 82.9496 54.4C82.9496 54.4 83.2496 31.4916 83.2496 31.35C83.2843 30.9379 83.3711 30.5319 83.5079 30.1416C83.9746 28.5416 84.9329 25.2083 84.2413 19.075C84.2359 19.0259 84.2406 18.9762 84.2549 18.929C84.2692 18.8817 84.2929 18.8378 84.3246 18.8C84.3531 18.7592 84.3903 18.7253 84.4336 18.7008C84.4768 18.6763 84.525 18.6618 84.5746 18.6583C87.27 18.3749 89.8778 17.5371 92.2339 16.1977C94.5901 14.8583 96.6439 13.0461 98.2663 10.875C98.3003 10.8262 98.3451 10.7859 98.397 10.757C98.449 10.7281 98.5069 10.7115 98.5663 10.7083C98.6264 10.706 98.6862 10.7176 98.7411 10.7422C98.7961 10.7667 98.8446 10.8036 98.8829 10.85C98.8829 10.85 102.608 15.4416 104.141 16.825C105.402 17.9019 106.522 19.1339 107.475 20.4916C110.358 24.8583 109.725 32.0166 109.325 34.8916C108.841 38.3333 106.825 44.0583 102.35 44.3166L103.591 56.7583C103.392 58.7565 102.416 60.5967 100.875 61.8833C99.6255 62.8055 98.1013 63.2783 96.5496 63.225ZM83.6746 54.3166C84.8068 56.3615 86.3731 58.1337 88.2634 59.5085C90.1536 60.8834 92.3221 61.8277 94.6163 62.275C97.0163 62.7083 98.9579 62.375 100.391 61.2833C101.741 60.1344 102.607 58.5183 102.816 56.7583L101.533 43.9833C101.528 43.9291 101.535 43.8746 101.552 43.823C101.569 43.7714 101.597 43.7239 101.633 43.6833C101.67 43.6458 101.714 43.6161 101.763 43.5961C101.811 43.5761 101.864 43.566 101.916 43.5666H102.016C106.183 43.5666 108.091 38.0583 108.55 34.7833C108.95 31.9916 109.566 25.0666 106.825 20.9166C105.895 19.6088 104.806 18.4219 103.583 17.3833C101.822 15.5766 100.153 13.6826 98.5829 11.7083C95.2289 15.9368 90.3537 18.6855 84.9996 19.3666C85.6246 25.4083 84.6663 28.7333 84.1663 30.35C84.0572 30.669 83.9818 30.9986 83.9413 31.3333C83.9413 31.3333 83.9746 31.3583 83.6746 54.3166Z" fill="#21005D"/>
<path d="M102.35 48.1667C100.239 48.5359 98.0681 48.3049 96.0829 47.5C91.5079 45.8917 91.2412 42.7667 91.2412 42.7667C91.2412 42.7667 95.0912 45.1833 101.908 43.9167L102.35 48.1667Z" fill="#21005D"/>
<path d="M100.491 48.7083C98.9447 48.6821 97.413 48.4006 95.9581 47.875C91.2164 46.2083 90.8914 42.9666 90.8748 42.875C90.8681 42.8061 90.881 42.7367 90.9121 42.6749C90.9432 42.613 90.9911 42.5612 91.0504 42.5255C91.1097 42.4898 91.1778 42.4715 91.247 42.4729C91.3162 42.4743 91.3836 42.4952 91.4414 42.5333C91.4414 42.5333 95.2664 44.8583 101.841 43.6333C101.944 43.6161 102.049 43.64 102.133 43.7C102.174 43.7297 102.209 43.7684 102.233 43.8131C102.258 43.8578 102.272 43.9074 102.275 43.9583L102.708 48.125C102.726 48.1941 102.724 48.267 102.701 48.3349C102.679 48.4028 102.638 48.463 102.583 48.5083C102.547 48.5412 102.505 48.5664 102.459 48.5822C102.413 48.598 102.365 48.604 102.316 48.6V48.6C101.713 48.6945 101.102 48.7308 100.491 48.7083V48.7083ZM91.7998 43.4916C92.1664 44.45 93.2164 46.125 96.2081 47.175C98.0364 47.8726 100.01 48.1045 101.95 47.85L101.591 44.375C96.5748 45.2166 93.2164 44.1666 91.7998 43.4916Z" fill="#21005D"/>
<path d="M96.2915 23.1417C96.2915 23.1417 101.041 28.9 100.166 30.075C99.2915 31.25 96.4748 30.8083 96.4748 30.8083" fill="white"/>
<path d="M97.6499 31.2583C97.2374 31.2578 96.8254 31.23 96.4166 31.175C96.3303 31.1484 96.2564 31.0916 96.2087 31.0149C96.1609 30.9382 96.1424 30.8469 96.1566 30.7577C96.1708 30.6685 96.2167 30.5874 96.2859 30.5293C96.3551 30.4713 96.4429 30.4402 96.5332 30.4417C97.2582 30.5583 99.2666 30.6667 99.8666 29.85C100.242 29.35 98.4333 26.325 95.9916 23.375C95.9609 23.3378 95.9378 23.2949 95.9237 23.2488C95.9097 23.2027 95.9048 23.1543 95.9094 23.1063C95.9141 23.0583 95.9281 23.0117 95.9508 22.9692C95.9735 22.9266 96.0043 22.8889 96.0416 22.8583C96.1189 22.7979 96.2164 22.7694 96.314 22.7787C96.4117 22.788 96.5021 22.8344 96.5666 22.9083C98.0499 24.7083 101.4 29.025 100.458 30.2917C99.8666 31.0917 98.6082 31.2583 97.6499 31.2583Z" fill="#21005D"/>
<path d="M102.238 24.464C102.625 24.4121 102.86 23.7747 102.762 23.0402C102.664 22.3058 102.27 21.7525 101.882 21.8043C101.494 21.8562 101.259 22.4936 101.358 23.2281C101.456 23.9625 101.85 24.5158 102.238 24.464Z" fill="#21005D"/>
<path d="M90.5507 24.4804C90.9419 24.4758 91.252 23.8715 91.2433 23.1306C91.2346 22.3896 90.9105 21.7927 90.5193 21.7973C90.1282 21.8018 89.8181 22.4062 89.8267 23.1471C89.8354 23.888 90.1595 24.485 90.5507 24.4804Z" fill="#21005D"/>
<path d="M86.225 27.9C85.9382 26.8 85.4493 25.7629 84.7833 24.8417C84.4003 24.3188 83.898 23.8948 83.3183 23.605C82.7386 23.3151 82.0981 23.1677 81.45 23.175C81.0492 23.1906 80.6573 23.297 80.3036 23.4861C79.9499 23.6752 79.6438 23.9421 79.4083 24.2667C79.127 24.7343 78.9507 25.2575 78.8916 25.8C78.4666 28.6583 79.4249 32.3833 82.1166 33.8583C82.5709 34.1439 83.0967 34.2954 83.6333 34.2954C84.1699 34.2954 84.6956 34.1439 85.1499 33.8583" fill="white"/>
<path d="M83.8165 34.625C83.1658 34.61 82.5284 34.4385 81.9581 34.125C79.1415 32.575 78.1248 28.7333 78.5665 25.725C78.6295 25.1343 78.8231 24.565 79.1331 24.0583C79.3958 23.691 79.7387 23.3883 80.1357 23.1732C80.5328 22.958 80.9736 22.8361 81.4248 22.8166C82.1293 22.8116 82.8248 22.9745 83.4538 23.2919C84.0827 23.6093 84.627 24.072 85.0415 24.6416C85.7359 25.5936 86.2447 26.6679 86.5415 27.8083C86.5648 27.8923 86.5543 27.982 86.5122 28.0584C86.4702 28.1347 86.3999 28.1915 86.3165 28.2166C86.2755 28.2307 86.232 28.2362 86.1888 28.2328C86.1456 28.2294 86.1036 28.2171 86.0653 28.1968C86.027 28.1765 85.9933 28.1486 85.9663 28.1147C85.9393 28.0808 85.9195 28.0418 85.9081 28C85.6328 26.9398 85.1638 25.9396 84.5248 25.05C84.1787 24.562 83.72 24.1647 83.1875 23.892C82.6551 23.6192 82.0647 23.479 81.4664 23.4833C81.1176 23.4963 80.7761 23.5877 80.4674 23.7507C80.1587 23.9137 79.8906 24.1442 79.6831 24.425C79.4278 24.8516 79.2712 25.33 79.2248 25.825C78.8081 28.6 79.7248 32.1416 82.2748 33.5416C82.6676 33.8034 83.1266 33.9486 83.5985 33.9604C84.0704 33.9722 84.536 33.8501 84.9414 33.6083C85.0119 33.5564 85.0996 33.5336 85.1864 33.5444C85.2732 33.5553 85.3526 33.599 85.4081 33.6666C85.4621 33.7363 85.4862 33.8246 85.4753 33.912C85.4644 33.9995 85.4192 34.079 85.3498 34.1333C84.9069 34.4618 84.3678 34.6347 83.8165 34.625V34.625Z" fill="#21005D"/>
<path d="M130.75 126.5C130.648 126.5 130.55 126.463 130.472 126.398C130.394 126.332 130.342 126.242 130.325 126.142C127.466 108.3 121.991 74.2916 121.741 73.2583C121.713 73.1478 121.73 73.0308 121.788 72.9325C121.845 72.8343 121.94 72.7627 122.05 72.7333C122.161 72.7079 122.278 72.7266 122.376 72.7857C122.474 72.8448 122.545 72.9395 122.575 73.05C122.9 74.375 130.833 123.883 131.175 126C131.191 126.113 131.163 126.227 131.096 126.319C131.029 126.411 130.929 126.473 130.816 126.492L130.75 126.5Z" fill="#21005D"/>
<path d="M173.55 80.7583H13.1081C6.38311 80.7583 0.933105 86.5416 0.933105 93.6583V163.9C0.933105 171.025 6.38311 176.792 13.1081 176.792H73.8664H91.9998H111.033H173.591C180.316 176.792 185.775 171.025 185.775 163.9V93.6583C185.733 86.5416 180.275 80.7583 173.55 80.7583Z" fill="white"/>
<path d="M73.6998 177.175H13.1081C6.18311 177.175 0.558105 171.217 0.558105 163.9V93.6583C0.558105 86.3416 6.18311 80.3833 13.1081 80.3833H173.55C180.475 80.3833 186.108 86.3416 186.108 93.6583V163.9C186.108 171.217 180.475 177.175 173.55 177.175H111.158H73.6998ZM13.1081 81.1416C6.60811 81.1416 1.31644 86.7583 1.31644 93.6416V163.883C1.31644 170.783 6.60811 176.383 13.1081 176.383H73.8664L110.991 176.358H173.55C180.058 176.358 185.35 170.742 185.35 163.858V93.6583C185.35 86.7583 180.058 81.1583 173.55 81.1583L13.1081 81.1416Z" fill="#21005D"/>
<path d="M138.766 135.133C138.683 139.475 133.3 140.692 133.3 140.692C133.3 140.692 137.858 141.158 136.166 145.308C135.704 146.493 134.944 147.538 133.96 148.343C132.977 149.149 131.802 149.688 130.55 149.908C130.55 149.908 134.375 152.075 131.6 156.067C128.825 160.058 101.041 159.783 96.4331 159.942C94.01 160.205 91.5674 159.664 89.4831 158.4C87.9998 157.567 85.4248 155.6 84.4831 155.6C81.8748 155.6 71.3081 156.3 71.3081 156.3L73.8081 125.158C73.8081 125.158 87.7998 125.158 90.3748 122.858C97.1414 116.858 101.45 106.1 100.833 99.7916C100.216 93.4833 98.4664 89.0333 102.925 88.575C107.383 88.1166 112.091 97.1833 112.675 103.025C113.258 108.867 110.216 115.942 111.6 118.25C112.983 120.558 116.975 121.017 123.266 120.4C129.558 119.783 135.325 119.025 137.8 121.842C140.275 124.658 140.141 128.817 134.6 131.125C134.633 131.125 138.825 132.217 138.766 135.133Z" fill="white"/>
<path d="M95.2748 160.383C93.1655 160.439 91.0859 159.877 89.2915 158.767C88.7498 158.475 88.0998 158.05 87.3998 157.6C86.3748 156.933 84.9748 156.017 84.4915 156.017C81.9248 156.017 71.4498 156.708 71.3415 156.717C71.2817 156.719 71.222 156.709 71.1662 156.688C71.1103 156.666 71.0594 156.633 71.0165 156.592C70.9758 156.548 70.9445 156.497 70.9244 156.441C70.9043 156.385 70.896 156.326 70.8998 156.267L73.3998 125.125C73.4082 125.02 73.4558 124.923 73.5331 124.852C73.6103 124.781 73.7115 124.741 73.8165 124.742C77.6665 124.742 88.0915 124.333 90.1082 122.542C95.5665 117.708 101.15 107.192 100.425 99.8333C100.308 98.5917 100.142 97.45 99.9915 96.3417C99.5498 93.2417 99.1998 90.8 100.317 89.375C100.638 89.005 101.033 88.7059 101.476 88.4964C101.92 88.287 102.401 88.1719 102.892 88.1583C107.617 87.6667 112.442 96.775 113.1 102.983C113.408 105.917 112.817 109.1 112.267 111.9C111.717 114.7 111.317 116.992 111.942 118.033C113.142 120.025 116.617 120.625 123.225 119.983L124.317 119.875C130.392 119.275 135.642 118.758 138.108 121.542C138.752 122.214 139.226 123.031 139.49 123.924C139.754 124.817 139.8 125.76 139.625 126.675C139.333 127.942 138.4 129.667 135.708 131.05C137.042 131.6 139.192 132.842 139.15 135.117C139.092 138.292 136.392 139.908 134.7 140.617C135.168 140.774 135.595 141.033 135.95 141.376C136.306 141.718 136.581 142.135 136.755 142.597C136.93 143.059 137 143.553 136.96 144.045C136.92 144.537 136.771 145.014 136.525 145.442C136.093 146.549 135.415 147.543 134.541 148.349C133.668 149.155 132.622 149.751 131.483 150.092C132.18 150.699 132.674 151.504 132.9 152.4C133.02 153.08 132.995 153.778 132.825 154.447C132.656 155.117 132.346 155.743 131.917 156.283C129.7 159.483 114.258 160.1 99.4165 160.283C98.0582 160.283 97.0082 160.283 96.3832 160.333L95.2748 160.383ZM84.4915 155.183C85.1665 155.183 86.2165 155.833 87.8248 156.908C88.4998 157.342 89.1415 157.742 89.6415 158.033C91.6612 159.264 94.0327 159.789 96.3832 159.525C97.0082 159.525 98.0499 159.525 99.4332 159.475C107.508 159.375 128.958 159.108 131.225 155.833C131.594 155.435 131.867 154.957 132.024 154.436C132.18 153.915 132.215 153.366 132.127 152.83C132.038 152.294 131.829 151.785 131.513 151.342C131.198 150.899 130.786 150.534 130.308 150.275C130.231 150.231 130.171 150.164 130.135 150.083C130.099 150.002 130.089 149.912 130.108 149.825C130.124 149.739 130.168 149.661 130.233 149.602C130.297 149.543 130.379 149.508 130.467 149.5C131.648 149.292 132.755 148.783 133.681 148.02C134.607 147.258 135.319 146.269 135.75 145.15C135.973 144.747 136.098 144.296 136.112 143.835C136.127 143.374 136.031 142.917 135.833 142.5C135.117 141.3 133.267 141.092 133.242 141.092C133.143 141.082 133.052 141.036 132.985 140.965C132.917 140.893 132.878 140.799 132.875 140.7C132.87 140.602 132.898 140.506 132.956 140.427C133.014 140.348 133.097 140.291 133.192 140.267C133.25 140.267 138.267 139.067 138.342 135.108C138.392 132.558 134.558 131.525 134.525 131.508C134.438 131.49 134.359 131.445 134.3 131.378C134.242 131.311 134.206 131.227 134.2 131.139C134.193 131.05 134.216 130.962 134.264 130.887C134.312 130.812 134.383 130.756 134.467 130.725C136.925 129.7 138.433 128.225 138.833 126.492C138.979 125.707 138.935 124.899 138.704 124.135C138.474 123.371 138.063 122.673 137.508 122.1C135.325 119.6 130.275 120.108 124.425 120.692L123.333 120.833C116.367 121.508 112.642 120.783 111.25 118.475C110.467 117.167 110.908 114.783 111.475 111.767C111.983 109.017 112.567 105.933 112.267 103.083C111.675 97.4833 107.075 88.5833 102.975 89.0083C102.597 89.0111 102.224 89.0926 101.88 89.2475C101.536 89.4025 101.227 89.6275 100.975 89.9083C100.075 91.05 100.4 93.3417 100.817 96.2417C100.967 97.3083 101.133 98.5167 101.258 99.7667C101.867 106.008 97.7582 116.9 90.6665 123.183C88.2165 125.358 76.4998 125.575 74.1998 125.592L71.7665 155.833C73.8915 155.717 82.1832 155.183 84.4915 155.183V155.183Z" fill="#21005D"/>
<path d="M125.733 132.392C125.623 132.392 125.517 132.348 125.438 132.27C125.36 132.191 125.316 132.085 125.316 131.975C125.316 131.864 125.36 131.759 125.438 131.68C125.517 131.602 125.623 131.558 125.733 131.558C132.058 131.425 134.5 130.725 134.525 130.725C134.635 130.693 134.754 130.706 134.855 130.762C134.956 130.817 135.03 130.91 135.062 131.021C135.094 131.131 135.081 131.25 135.026 131.351C134.97 131.452 134.877 131.526 134.766 131.558C134.658 131.558 132.216 132.292 125.75 132.392H125.733Z" fill="#21005D"/>
<path d="M126.792 141.85H126.317C126.206 141.85 126.1 141.806 126.022 141.728C125.944 141.65 125.9 141.544 125.9 141.433C125.9 141.323 125.944 141.217 126.022 141.139C126.1 141.061 126.206 141.017 126.317 141.017C128.618 141.132 130.923 140.89 133.15 140.3C133.254 140.265 133.367 140.273 133.465 140.321C133.564 140.37 133.639 140.455 133.675 140.558C133.695 140.609 133.704 140.663 133.702 140.718C133.7 140.772 133.686 140.826 133.663 140.875C133.64 140.924 133.606 140.968 133.565 141.004C133.525 141.039 133.477 141.067 133.425 141.083C133.333 141.117 131.25 141.85 126.792 141.85Z" fill="#21005D"/>
<path d="M126.317 150.875C126.206 150.875 126.1 150.831 126.022 150.753C125.944 150.675 125.9 150.569 125.9 150.458C125.902 150.348 125.947 150.244 126.024 150.166C126.102 150.088 126.207 150.044 126.317 150.042C127.697 150.084 129.075 149.906 130.4 149.517C130.504 149.478 130.619 149.482 130.72 149.528C130.82 149.574 130.899 149.659 130.937 149.762C130.976 149.866 130.972 149.981 130.926 150.082C130.88 150.183 130.795 150.261 130.692 150.3C129.274 150.727 127.796 150.922 126.317 150.875V150.875Z" fill="#21005D"/>
<path d="M81.5997 160.217L44.0747 161.767V120.333L81.5997 121.883V160.217Z" fill="#6750A4"/>
<path d="M70.083 132.442C72.016 132.442 73.583 130.875 73.583 128.942C73.583 127.009 72.016 125.442 70.083 125.442C68.15 125.442 66.583 127.009 66.583 128.942C66.583 130.875 68.15 132.442 70.083 132.442Z" fill="#21005D"/>
<path d="M70.083 132.8C69.3175 132.802 68.5688 132.576 67.9317 132.152C67.2945 131.728 66.7976 131.124 66.5039 130.417C66.2102 129.71 66.133 128.932 66.2819 128.181C66.4308 127.43 66.7993 126.74 67.3405 126.199C67.8818 125.658 68.5715 125.289 69.3224 125.141C70.0732 124.992 70.8513 125.069 71.5582 125.363C72.2651 125.656 72.8689 126.153 73.2932 126.79C73.7174 127.427 73.943 128.176 73.9413 128.942C73.9391 129.964 73.5319 130.944 72.8088 131.667C72.0857 132.391 71.1056 132.798 70.083 132.8ZM70.083 125.808C69.4629 125.807 68.8563 125.989 68.3399 126.332C67.8236 126.676 67.4207 127.164 67.1822 127.737C66.9438 128.309 66.8806 128.939 67.0005 129.548C67.1205 130.156 67.4182 130.715 67.8561 131.154C68.294 131.593 68.8523 131.893 69.4603 132.014C70.0683 132.136 70.6988 132.074 71.2718 131.837C71.8448 131.6 72.3347 131.199 72.6794 130.683C73.024 130.168 73.208 129.562 73.208 128.942C73.1993 128.117 72.8667 127.329 72.2821 126.747C71.6974 126.166 70.9076 125.838 70.083 125.833V125.808Z" fill="#21005D"/>
<path d="M151.217 34.85C151.644 36.7952 152.62 38.5772 154.029 39.9847C155.438 41.3923 157.221 42.3664 159.167 42.7916C157.222 43.2183 155.441 44.193 154.034 45.6005C152.626 47.0079 151.652 48.7891 151.225 50.7333C150.798 48.7891 149.823 47.0079 148.416 45.6005C147.009 44.193 145.227 43.2183 143.283 42.7916C143.283 42.7916 145.783 42.6416 148.417 39.9833C151.05 37.325 151.217 34.85 151.217 34.85Z" fill="#EADDFF"/>
<path d="M13.0164 44.9C13.3435 46.3868 14.0894 47.7489 15.1659 48.8254C16.2424 49.9019 17.6046 50.6478 19.0914 50.975C17.6033 51.2993 16.2396 52.0442 15.1626 53.1212C14.0856 54.1981 13.3407 55.5618 13.0164 57.05C12.6921 55.5618 11.9472 54.1981 10.8702 53.1212C9.79323 52.0442 8.42955 51.2993 6.94141 50.975C8.42824 50.6478 9.79038 49.9019 10.8669 48.8254C11.9434 47.7489 12.6893 46.3868 13.0164 44.9V44.9Z" fill="#EADDFF"/>
<path d="M31.1916 19.5083C31.4483 20.6825 32.0361 21.7586 32.8853 22.6092C33.7344 23.4599 34.8095 24.0495 35.9832 24.3083C34.8088 24.5627 33.7325 25.1498 32.8828 25.9995C32.0331 26.8492 31.4459 27.9255 31.1916 29.1C30.9334 27.9273 30.345 26.853 29.4959 26.0039C28.6469 25.1549 27.5726 24.5665 26.3999 24.3083C27.5902 24.1209 28.6808 23.533 29.4916 22.6416C30.4014 21.8235 31.0017 20.717 31.1916 19.5083V19.5083Z" fill="#EADDFF"/>
<path d="M98.283 38.7083C92.1247 38.7083 90.158 30.5833 90.0747 30.2333C90.0548 30.1372 90.0733 30.0372 90.1263 29.9546C90.1792 29.8721 90.2624 29.8136 90.358 29.7916C90.4051 29.7805 90.4539 29.7788 90.5016 29.7866C90.5493 29.7945 90.5951 29.8117 90.6361 29.8372C90.6772 29.8628 90.7127 29.8962 90.7408 29.9356C90.7689 29.9749 90.7889 30.0195 90.7997 30.0666C90.7997 30.1416 92.7081 37.975 98.2997 37.975C98.8795 37.9973 99.4571 37.8917 99.9915 37.6656C100.526 37.4394 101.004 37.0984 101.391 36.6666C103.316 34.475 102.8 30.225 102.791 30.1833C102.784 30.1351 102.787 30.0859 102.799 30.0388C102.811 29.9916 102.833 29.9473 102.862 29.9085C102.892 29.8697 102.929 29.8372 102.971 29.8128C103.013 29.7885 103.06 29.7728 103.108 29.7666C103.205 29.7568 103.301 29.784 103.379 29.8428C103.456 29.9016 103.508 29.9875 103.525 30.0833C103.525 30.275 104.1 34.7083 101.95 37.15C101.492 37.6651 100.926 38.0722 100.292 38.3417C99.6576 38.6112 98.9715 38.7364 98.283 38.7083V38.7083Z" fill="#21005D"/>
<path d="M151.908 75.4583C148.775 74.4416 145.058 73.7916 142.416 75.775C141.181 76.834 140.206 78.1626 139.566 79.6583C138.124 82.5064 136.876 85.4493 135.833 88.4666C135.566 89.3 135.383 90.3 136.066 90.7666C136.9 91.3416 137.941 90.425 138.466 89.5666C139.416 88.0335 140.156 86.3798 140.666 84.65C139.479 87.1169 138.637 89.7361 138.166 92.4333C138.064 92.7588 138.064 93.1078 138.166 93.4333C138.33 93.7117 138.597 93.9143 138.909 93.997C139.221 94.0797 139.553 94.0359 139.833 93.875C140.401 93.555 140.864 93.0775 141.166 92.5C142.54 90.2245 143.658 87.8043 144.5 85.2833C143.666 87.9083 142.833 90.6 142.95 93.35C142.93 93.5815 142.96 93.8146 143.036 94.0342C143.112 94.2537 143.233 94.455 143.391 94.625C143.611 94.7661 143.87 94.8318 144.13 94.8123C144.391 94.7927 144.637 94.6889 144.833 94.5166C145.202 94.1587 145.487 93.7232 145.666 93.2416L149 86.3666C148.28 88.924 147.879 91.5608 147.808 94.2166C147.782 94.4384 147.817 94.6629 147.908 94.8666C148.275 95.5583 149.366 95.0833 149.825 94.45C150.534 93.3499 151.029 92.1256 151.283 90.8416C152.175 87.5083 152.95 84.05 153.975 80.725C154.825 77.9916 155.141 76.5083 151.908 75.4583Z" fill="white"/>
<path d="M148.508 95.5666H148.417C148.243 95.556 148.075 95.5005 147.928 95.4056C147.782 95.3107 147.663 95.1796 147.583 95.025C147.47 94.7627 147.421 94.4768 147.442 94.1916C147.486 92.6384 147.639 91.0902 147.9 89.5583L146.058 93.3917C145.846 93.9322 145.512 94.4168 145.083 94.8083C144.821 95.0378 144.49 95.1725 144.142 95.1907C143.794 95.2088 143.451 95.1093 143.167 94.9083C142.964 94.7053 142.807 94.4612 142.706 94.1924C142.605 93.9236 142.563 93.6363 142.583 93.35C142.562 92.3423 142.637 91.3349 142.808 90.3416C142.408 91.175 141.975 91.925 141.508 92.6833C141.192 93.3268 140.694 93.863 140.075 94.225C139.86 94.3298 139.626 94.3905 139.387 94.4033C139.148 94.4162 138.908 94.3811 138.683 94.3C138.514 94.241 138.358 94.1487 138.225 94.0285C138.092 93.9082 137.984 93.7625 137.908 93.6C137.769 93.2091 137.749 92.7857 137.85 92.3833C137.95 91.7666 138.075 91.15 138.217 90.5416C137.88 90.9132 137.443 91.1795 136.958 91.3083C136.773 91.3512 136.58 91.354 136.393 91.3167C136.206 91.2793 136.03 91.2026 135.875 91.0916C135.392 90.7583 134.933 90.0083 135.5 88.35C136.545 85.3184 137.795 82.3616 139.242 79.5C139.909 77.9488 140.924 76.5717 142.208 75.475C144.45 73.8083 147.658 73.6833 152.042 75.1083C155.583 76.2583 155.225 78.0333 154.358 80.8333C153.675 83.0333 153.1 85.325 152.542 87.5C152.25 88.6333 151.967 89.7667 151.708 90.8917C151.439 92.2195 150.925 93.4856 150.192 94.625C150 94.8986 149.749 95.1254 149.458 95.2885C149.166 95.4516 148.842 95.5466 148.508 95.5666V95.5666ZM149 85.975C149.044 85.967 149.089 85.967 149.133 85.975C149.222 86.0089 149.295 86.0745 149.338 86.1592C149.381 86.2439 149.391 86.3416 149.367 86.4333C148.651 88.9571 148.257 91.5609 148.192 94.1833C148.171 94.3379 148.188 94.4952 148.242 94.6417C148.262 94.684 148.294 94.7198 148.334 94.7449C148.373 94.7699 148.419 94.7833 148.467 94.7833C148.674 94.7622 148.874 94.6978 149.055 94.5945C149.236 94.4912 149.393 94.3511 149.517 94.1833C150.193 93.121 150.668 91.9429 150.917 90.7083C151.217 89.5833 151.5 88.45 151.75 87.325C152.308 85.1 152.892 82.7916 153.583 80.575C154.417 77.875 154.642 76.7416 151.75 75.8C147.633 74.4583 144.642 74.5416 142.583 76.05C141.394 77.0767 140.456 78.3624 139.842 79.8083C138.406 82.6392 137.167 85.5656 136.133 88.5666C135.95 89.1083 135.717 90.075 136.225 90.4333C136.297 90.4833 136.379 90.5173 136.465 90.5331C136.551 90.5489 136.64 90.5461 136.725 90.525C137.308 90.3087 137.794 89.8883 138.092 89.3417C138.358 88.9167 138.608 88.5083 138.833 88.025C139.236 86.8073 139.715 85.616 140.267 84.4583C140.31 84.3728 140.383 84.306 140.472 84.2707C140.561 84.2354 140.66 84.2339 140.75 84.2666C140.839 84.3022 140.911 84.3698 140.953 84.4562C140.995 84.5426 141.003 84.6415 140.975 84.7333C140.609 85.9694 140.129 87.169 139.542 88.3166C139.099 89.6787 138.756 91.0713 138.517 92.4833C138.445 92.7395 138.445 93.0104 138.517 93.2666C138.588 93.405 138.71 93.5098 138.858 93.5583C138.99 93.6142 139.132 93.6431 139.275 93.6431C139.418 93.6431 139.56 93.6142 139.692 93.5583C140.173 93.2545 140.56 92.8213 140.808 92.3083C142.163 90.055 143.267 87.6602 144.1 85.1666C144.139 85.081 144.208 85.0126 144.294 84.9746C144.38 84.9365 144.477 84.9314 144.566 84.9602C144.656 84.989 144.732 85.0498 144.779 85.1308C144.827 85.2119 144.843 85.3077 144.825 85.4C144.033 87.975 143.217 90.6333 143.3 93.3416C143.281 93.5186 143.297 93.6976 143.349 93.868C143.4 94.0384 143.486 94.1966 143.6 94.3333C143.751 94.4168 143.925 94.4513 144.096 94.4319C144.268 94.4125 144.429 94.3402 144.558 94.225C144.893 93.9043 145.155 93.5148 145.325 93.0833L148.658 86.2167C148.684 86.1463 148.73 86.0855 148.791 86.0423C148.852 85.9991 148.925 85.9756 149 85.975V85.975Z" fill="#21005D"/>
</g>
<defs>
<clipPath id="clip0_54376_36379">
<rect width="187" height="178" fill="white"/>
</clipPath>
</defs>
</svg>
