<svg width="200" height="200" viewBox="0 0 200 200" fill="none" xmlns="http://www.w3.org/2000/svg">
<g clip-path="url(#clip0_54373_36227)">
<path d="M133.871 122.213V42.45H110.258L112.597 48.1144C114.441 50.8148 112.827 56.4465 107.723 56.4465H37.3457C33.5255 56.4465 30.6605 52.231 32.1755 48.8062L34.7772 42.4174H11.1316V188.803H128.965C120.435 180.998 115.034 169.867 115.034 157.419C115.001 142.796 122.542 129.853 133.871 122.213Z" fill="white"/>
<path d="M22.2292 177.771H120.237C116.943 171.744 115 164.861 115 157.484C115 148.395 117.865 139.964 122.74 133.048V53.5815H112.531C111.674 55.1954 110.061 56.4797 107.657 56.4797H37.3455C35.2706 56.4797 33.5253 55.228 32.5375 53.5815H22.2292V177.771Z" fill="#D0BCFF"/>
<path d="M113.354 85.625H70.0477C66.985 85.625 64.4822 83.1553 64.4822 80.0595C64.4822 76.9968 66.9519 74.494 70.0477 74.494H113.354C116.417 74.494 118.92 76.9637 118.92 80.0595C118.92 83.1222 116.417 85.625 113.354 85.625Z" fill="#21005D"/>
<path d="M45.2826 75.9754H37.1812V84.0768H45.2826V75.9754Z" fill="white"/>
<path d="M50.848 64.8776H31.6483C28.5856 64.8776 26.0828 67.3473 26.0828 70.4431V89.6428C26.0828 92.7055 28.5525 95.2083 31.6483 95.2083H50.848C53.9107 95.2083 56.4135 92.7386 56.4135 89.6428V70.4431C56.4135 67.3473 53.9107 64.8776 50.848 64.8776ZM45.3157 84.0769H37.2137V75.9754H45.3152L45.3157 84.0769Z" fill="#21005D"/>
<path d="M113.354 123.036H70.0479C66.9852 123.036 64.4824 120.567 64.4824 117.471C64.4824 114.408 66.9521 111.905 70.0479 111.905H113.354C116.417 111.905 118.92 114.375 118.92 117.471C118.92 120.567 116.417 123.036 113.354 123.036Z" fill="#21005D"/>
<path d="M45.2826 113.453H37.1812V121.554H45.2826V113.453Z" fill="white"/>
<path d="M50.848 102.355H31.6483C28.5856 102.355 26.0828 104.824 26.0828 107.92V127.12C26.0828 130.183 28.5525 132.685 31.6483 132.685H50.848C53.9107 132.685 56.4135 130.216 56.4135 127.12V107.92C56.4135 104.825 53.9107 102.355 50.848 102.355ZM45.3157 121.554H37.2137V113.453H45.3152L45.3157 121.554Z" fill="#21005D"/>
<path d="M96.1305 160.514H70.1136C67.0509 160.514 64.5481 158.044 64.5481 154.948C64.5481 151.853 67.0178 149.383 70.1136 149.383H96.1305C99.1932 149.383 101.696 151.853 101.696 154.948C101.663 158.044 99.1932 160.514 96.1305 160.514Z" fill="#21005D"/>
<path d="M45.2826 150.93H37.1812V159.032H45.2826V150.93Z" fill="white"/>
<path d="M50.848 139.799H31.6483C28.5856 139.799 26.0828 142.269 26.0828 145.364V164.564C26.0828 167.627 28.5525 170.13 31.6483 170.13H50.848C53.9107 170.13 56.4135 167.66 56.4135 164.564V145.364C56.4135 142.302 53.9107 139.799 50.848 139.799ZM45.3157 159.032H37.2137V150.93H45.3152L45.3157 159.032Z" fill="#21005D"/>
<path d="M157.517 115.001C153.137 115.001 148.988 115.659 145.002 116.878V36.9177C145.002 33.855 142.533 31.3522 139.437 31.3522H105.714L102.914 24.4693C102.058 22.3944 100.049 21.0113 97.7443 21.0113H90.0708V17.5864C90.0708 7.90427 82.1996 0.0331116 72.5174 0.0331116C62.8353 0.0331116 54.9641 7.90427 54.9641 17.5864V21.0113H47.2585C45.0191 21.0113 42.9773 22.3944 42.0883 24.4693L39.2559 31.3522H5.56549C2.50281 31.3517 0 33.8219 0 36.9177V194.401C0 197.464 2.4697 199.967 5.56549 199.967H157.385C157.418 199.967 157.451 199.967 157.517 199.967C180.932 199.967 200 180.899 200 157.484C200 134.068 180.965 115.001 157.517 115.001ZM66.0299 17.5859C66.0299 14.0291 68.928 11.131 72.4848 11.131C76.0417 11.131 78.9398 14.0291 78.9398 17.5859V21.0108H66.0304V17.5859H66.0299ZM51.0125 32.1092H93.9898L99.4238 45.3813H45.6115L51.0125 32.1092ZM11.1315 188.902V42.45H34.777L32.1754 48.8393C30.6278 52.2973 33.4597 56.4797 37.3456 56.4797H107.69C112.794 56.4797 114.375 50.8479 112.564 48.1475L110.226 42.4831H133.839V122.246C122.477 129.887 114.968 142.829 114.968 157.55C114.968 169.998 120.369 181.13 128.899 188.935L11.1315 188.902ZM157.517 188.902C140.194 188.902 126.132 174.806 126.132 157.517C126.132 140.194 140.227 126.132 157.517 126.132C174.839 126.132 188.902 140.227 188.902 157.517C188.902 174.806 174.806 188.902 157.517 188.902Z" fill="#21005D"/>
<path d="M157.517 126.099C140.194 126.099 126.132 140.194 126.132 157.484C126.132 174.806 140.227 188.869 157.517 188.869C174.839 188.869 188.902 174.773 188.902 157.484C188.902 140.194 174.806 126.099 157.517 126.099Z" fill="#EADDFF"/>
<path d="M51.0125 32.1092L45.6116 45.3813H99.4239L93.9898 32.1092H51.0125Z" fill="#EADDFF"/>
<path d="M72.485 11.131C68.9282 11.131 66.03 14.0291 66.03 17.5859V21.0108H78.9394V17.5859C78.9725 14.0291 76.0744 11.131 72.485 11.131Z" fill="#EADDFF"/>
<path d="M173.894 169.171C178.727 169.171 182.819 162.471 182.819 154.532C182.819 146.602 178.737 139.892 173.894 139.892C169.756 140.136 165.739 144.181 169.352 149.201C170.563 150.694 171.192 152.477 171.192 154.363C171.192 156.324 170.46 158.248 169.146 159.759C166.002 163.24 168.442 168.608 173.894 169.171Z" fill="white"/>
<path d="M173.875 166.009C172.806 166.074 169.568 164.122 171.529 161.833C173.331 159.73 174.354 157.084 174.354 154.363C174.354 151.782 173.312 149.351 171.811 147.221C170.009 144.65 172.543 143.008 173.885 143.073C176.231 143.195 179.637 147.54 179.637 154.541C179.637 161.541 176.222 166.009 173.875 166.009Z" fill="#6750A4"/>
<path d="M141.087 139.901C136.254 139.901 132.163 146.602 132.163 154.541C132.163 162.471 136.245 169.18 141.087 169.18C146.539 168.617 148.97 163.249 145.817 159.768C144.503 158.257 143.771 156.333 143.771 154.372C143.771 152.486 144.409 150.703 145.61 149.21C149.242 144.181 145.235 140.155 141.087 139.901Z" fill="white"/>
<path d="M173.894 136.739C167.41 136.739 161.479 144.284 166.894 151.21C167.316 151.735 167.625 152.336 167.813 152.955H167.025C162.642 152.955 159.076 156.521 159.076 160.903V182.675C159.076 183.548 159.78 184.261 160.662 184.261C161.544 184.261 162.248 183.557 162.248 182.675V160.903C162.248 158.266 164.388 156.117 167.034 156.117H167.719C167.503 156.681 167.194 157.206 166.781 157.675C161.376 163.719 166.612 172.333 173.903 172.333C180.679 172.333 186 164.516 186 154.532C185.981 144.556 180.679 136.739 173.894 136.739ZM173.894 169.171C168.442 168.608 166.011 163.24 169.164 159.759C170.478 158.248 171.21 156.324 171.21 154.363C171.21 152.477 170.572 150.693 169.371 149.201C165.758 144.171 169.774 140.146 173.913 139.892C178.746 139.892 182.837 146.593 182.837 154.532C182.818 162.471 178.727 169.171 173.894 169.171Z" fill="#21005D"/>
<path d="M129 154.532C129 164.516 134.302 172.333 141.096 172.333C148.388 172.333 153.624 163.719 148.219 157.675C147.806 157.206 147.487 156.68 147.28 156.117H147.965C150.603 156.117 152.752 158.257 152.752 160.903V182.675C152.752 183.548 153.455 184.261 154.337 184.261C155.21 184.261 155.923 183.557 155.923 182.675V160.903C155.923 156.521 152.357 152.955 147.975 152.955H147.168C147.355 152.326 147.646 151.735 148.087 151.21C153.502 144.303 147.571 136.739 141.087 136.739C134.302 136.739 129 144.556 129 154.532ZM132.163 154.532C132.163 146.602 136.245 139.892 141.087 139.892C145.225 140.136 149.242 144.181 145.629 149.201C144.418 150.693 143.79 152.477 143.79 154.363C143.79 156.324 144.522 158.248 145.835 159.759C148.988 163.25 146.549 168.608 141.106 169.171C136.254 169.171 132.163 162.471 132.163 154.532Z" fill="#21005D"/>
<path d="M143.424 161.833C141.603 159.749 140.599 157.094 140.599 154.363C140.599 151.782 141.509 149.248 143.161 147.221C143.874 146.339 144.146 144.931 143.227 144.096C142.495 143.421 141.772 143.073 141.078 143.073C139.463 143.073 137.352 145.176 136.188 148.76H138.882C139.754 148.76 140.468 149.464 140.468 150.346C140.468 151.219 139.764 151.932 138.882 151.932H135.485C135.372 152.758 135.241 154.4 135.325 155.095H136.048C136.92 155.095 137.634 155.798 137.634 156.681C137.634 157.553 136.93 158.266 136.048 158.266H135.654C136.573 163.099 139.163 166.027 141.068 166.027C142.054 166.027 142.954 165.314 143.527 164.704C144.231 163.953 144.174 162.705 143.424 161.833Z" fill="#EADDFF"/>
</g>
<defs>
<clipPath id="clip0_54373_36227">
<rect width="200" height="200" fill="white"/>
</clipPath>
</defs>
</svg>
