<svg width="33" height="32" viewBox="0 0 33 32" fill="none" xmlns="http://www.w3.org/2000/svg">
<path d="M20.5989 2.56006C20.1121 2.55957 19.6301 2.65496 19.1802 2.84079C18.7304 3.02661 18.3216 3.29923 17.9772 3.64305C17.6328 3.98688 17.3596 4.39518 17.1731 4.84462C16.9866 5.29407 16.8905 5.77584 16.8903 6.26241C16.8898 6.74941 16.9854 7.23173 17.1716 7.68175C17.3578 8.13178 17.631 8.54067 17.9754 8.88504C18.3199 9.2294 18.7289 9.50246 19.1791 9.6886C19.6292 9.87474 20.1117 9.9703 20.5989 9.96981C21.0856 9.96965 21.5675 9.87361 22.0171 9.68717C22.4667 9.50074 22.8751 9.22757 23.2191 8.88327C23.563 8.53898 23.8357 8.1303 24.0216 7.6806C24.2075 7.2309 24.3029 6.74899 24.3024 6.26241C24.3021 5.28058 23.9118 4.33907 23.2173 3.64482C22.5228 2.95056 21.581 2.56039 20.5989 2.56006ZM11.0735 3.09833C10.6935 3.09831 10.3172 3.17312 9.9662 3.31848C9.61516 3.46383 9.29619 3.67689 9.02751 3.94548C8.75884 4.21407 8.54572 4.53294 8.40032 4.88388C8.25492 5.23481 8.18009 5.61094 8.18011 5.99079C8.1801 6.37063 8.25492 6.74676 8.40032 7.0977C8.54572 7.44863 8.75885 7.7675 9.02752 8.03609C9.2962 8.30468 9.61516 8.51773 9.9662 8.66309C10.3172 8.80844 10.6935 8.88325 11.0735 8.88323C11.4534 8.88324 11.8297 8.80843 12.1807 8.66308C12.5317 8.51772 12.8507 8.30466 13.1194 8.03607C13.388 7.76748 13.6012 7.44862 13.7466 7.09769C13.8919 6.74676 13.9668 6.37063 13.9668 5.99079C13.9668 5.61095 13.892 5.23482 13.7466 4.88389C13.6012 4.53295 13.388 4.21409 13.1194 3.94549C12.8507 3.6769 12.5317 3.46384 12.1807 3.31849C11.8297 3.17313 11.4534 3.09832 11.0735 3.09833ZM4.62248 9.16997C4.01466 9.17088 3.43207 9.413 3.00275 9.84313C2.57342 10.2733 2.3325 10.8562 2.33293 11.4638C2.33251 12.0715 2.57343 12.6544 3.00275 13.0845C3.43208 13.5146 4.01466 13.7568 4.62248 13.7577C4.92386 13.7579 5.22233 13.6987 5.50082 13.5835C5.7793 13.4683 6.03234 13.2993 6.24545 13.0863C6.45856 12.8732 6.62757 12.6203 6.74281 12.3419C6.85805 12.0635 6.91726 11.7651 6.91705 11.4638C6.91726 11.1625 6.85806 10.8642 6.74282 10.5858C6.62758 10.3074 6.45857 10.0544 6.24546 9.84135C6.03235 9.62831 5.77931 9.45935 5.50082 9.34415C5.22234 9.22895 4.92387 9.16976 4.62248 9.16997ZM27.5077 9.79375C26.9176 9.79369 26.3333 9.90984 25.7881 10.1356C25.2428 10.3613 24.7475 10.6922 24.3302 11.1093C23.9129 11.5265 23.5819 12.0217 23.3561 12.5667C23.1303 13.1118 23.0141 13.6959 23.0141 14.2859C23.0141 14.8758 23.1303 15.46 23.3561 16.005C23.5819 16.55 23.9129 17.0453 24.3302 17.4624C24.7475 17.8795 25.2428 18.2104 25.788 18.4361C26.3333 18.6619 26.9176 18.778 27.5077 18.778C28.0978 18.778 28.6822 18.6619 29.2274 18.4361C29.7726 18.2104 30.268 17.8795 30.6852 17.4624C31.1025 17.0452 31.4335 16.55 31.6593 16.005C31.8851 15.4599 32.0013 14.8758 32.0013 14.2859C32.0013 13.6959 31.8851 13.1118 31.6593 12.5667C31.4335 12.0217 31.1025 11.5265 30.6852 11.1093C30.268 10.6922 29.7726 10.3613 29.2274 10.1356C28.6822 9.90985 28.0978 9.7937 27.5077 9.79375ZM3.0878 16.4942C2.85045 16.4938 2.61536 16.5402 2.396 16.6308C2.17664 16.7214 1.97733 16.8544 1.8095 17.0222C1.64166 17.19 1.50861 17.3892 1.41796 17.6085C1.32731 17.8278 1.28085 18.0628 1.28125 18.3001C1.28152 18.5369 1.32846 18.7714 1.41941 18.9901C1.51035 19.2088 1.64351 19.4075 1.81128 19.5747C1.97904 19.7419 2.17813 19.8745 2.39716 19.9648C2.61619 20.0551 2.85088 20.1014 3.0878 20.101C3.5654 20.1004 4.02328 19.9105 4.36099 19.5729C4.6987 19.2353 4.88866 18.7775 4.8892 18.3001C4.88959 18.0632 4.84331 17.8286 4.75298 17.6097C4.66265 17.3907 4.53006 17.1917 4.36277 17.024C4.19548 16.8563 3.99678 16.7232 3.77802 16.6323C3.55925 16.5414 3.32471 16.4944 3.0878 16.4942ZM5.2817 23.1997C4.84293 23.2006 4.4224 23.3753 4.11214 23.6855C3.80187 23.9956 3.62714 24.416 3.62618 24.8547C3.62581 25.2942 3.79996 25.7159 4.11036 26.0271C4.42077 26.3384 4.84205 26.5137 5.2817 26.5147C5.49981 26.5149 5.71582 26.472 5.91736 26.3887C6.11891 26.3053 6.30203 26.183 6.45626 26.0289C6.61048 25.8747 6.73279 25.6916 6.81617 25.4901C6.89956 25.2886 6.94238 25.0727 6.9422 24.8547C6.94123 24.4152 6.76582 23.994 6.45448 23.6837C6.14314 23.3734 5.72134 23.1993 5.2817 23.1997ZM10.4143 27.6767C10.2437 27.6764 10.0747 27.7097 9.91708 27.7748C9.75943 27.8399 9.61618 27.9355 9.49556 28.0561C9.37494 28.1767 9.27932 28.3199 9.21418 28.4775C9.14904 28.6351 9.11566 28.804 9.11597 28.9745C9.11668 29.3181 9.25386 29.6472 9.49733 29.8897C9.7408 30.1321 10.0706 30.268 10.4143 30.2673C10.757 30.2666 11.0855 30.1302 11.3279 29.8879C11.5703 29.6456 11.7067 29.3172 11.7074 28.9745C11.7081 28.631 11.5722 28.3013 11.3297 28.0579C11.0872 27.8145 10.7579 27.6774 10.4143 27.6767ZM15.5871 29.0248C15.4757 29.0251 15.3655 29.0474 15.2628 29.0902C15.16 29.1331 15.0667 29.1958 14.9882 29.2748C14.9097 29.3537 14.8475 29.4474 14.8052 29.5504C14.7629 29.6533 14.7414 29.7636 14.7417 29.8749C14.7423 30.0989 14.8316 30.3135 14.99 30.4719C15.1484 30.6302 15.3631 30.7195 15.5871 30.7201C15.6984 30.7204 15.8088 30.6988 15.9118 30.6566C16.0148 30.6143 16.1085 30.5521 16.1874 30.4736C16.2664 30.3952 16.3291 30.3019 16.372 30.1992C16.4149 30.0964 16.4372 29.9863 16.4375 29.8749C16.4378 29.7632 16.4161 29.6525 16.3735 29.5492C16.3309 29.4459 16.2682 29.352 16.1892 29.273C16.1102 29.194 16.0163 29.1314 15.9129 29.0888C15.8096 29.0462 15.6989 29.0245 15.5871 29.0248Z" fill="white"/>
</svg>
