<svg width="77" height="54" viewBox="0 0 77 54" fill="none" xmlns="http://www.w3.org/2000/svg">
<g filter="url(#filter0_dd_54200_34917)">
<g filter="url(#filter1_ddd_54200_34917)">
<ellipse cx="55.9941" cy="23.019" rx="9.94043" ry="16.017" fill="white"/>
<path d="M56.0836 4.51489C59.7406 5.31289 62.9589 7.95921 64.8704 11.7638C67.9813 17.9623 68.9567 25.0167 67.5033 30.8447C66.5573 34.6493 64.6263 37.899 62.2372 39.709C61.3985 40.3413 59.848 41.1001 58.8727 41.3532C57.1561 41.7815 55.0595 41.6937 53.1579 41.0907C50.6907 40.3124 48.038 38.4538 46.585 36.4786C45.9513 35.6126 45.3076 34.2795 45.1126 33.3941C44.9176 32.5186 44.9663 31.0199 45.2101 30.3583C45.2977 30.1246 45.3563 29.9107 45.3369 29.8913C45.3175 29.8719 44.9858 30.0859 44.5958 30.3583C43.0354 31.4482 42.1674 32.6839 41.6898 34.5132C41.4849 35.3014 41.4362 35.6905 41.4263 36.8875L41.4167 38.3277H40.6756H39.9344L39.8762 37.6269C39.7981 36.6735 39.9638 35.0582 40.2467 33.9782C40.9586 31.2927 42.5871 29.4733 45.5034 28.111C47.8536 27.0117 49.8234 26.6222 51.1694 26.9824C52.1543 27.245 53.5978 28.1596 53.8415 28.6753C54.1828 29.3855 53.656 30.6798 52.8566 31.0883C52.486 31.2829 52.0081 31.2536 51.1888 31.0203C49.4822 30.5145 48.5559 31.3414 49.024 32.937C49.2484 33.7057 49.4921 34.1728 49.9015 34.5816C50.672 35.3504 51.3545 34.8442 51.8424 33.1414C51.9886 32.6452 52.0568 32.5578 52.3497 32.4312C52.6327 32.3146 52.7302 32.3146 52.9541 32.4118C53.3346 32.5965 53.4222 32.9568 53.2759 33.6769C53.0615 34.7762 53.4321 35.7201 54.3583 36.3817C55.5676 37.2572 57.2255 37.1212 58.2983 36.0507C59.0296 35.3306 59.332 34.2507 58.942 33.7445C58.6689 33.3941 58.6301 33.2095 58.7371 32.8785C58.9614 32.2462 59.5076 32.2264 60.1901 32.8298C60.5793 33.1802 60.7549 33.2676 61.0379 33.2676C62.0521 33.2676 63.0275 31.7788 63.0469 30.2025C63.0568 29.4243 62.842 28.8889 62.3351 28.4705C62.0033 28.1881 61.2039 27.9157 60.7065 27.9157C60.0823 27.9157 59.6923 27.215 59.9947 26.6507C60.1897 26.2908 60.4433 26.2323 61.2721 26.3683C62.3252 26.5336 62.9787 26.3877 63.5637 25.8527C64.1293 25.3279 64.3342 24.7735 64.3342 23.7323C64.3342 22.37 63.7686 21.2999 62.7837 20.7937C62.2863 20.5311 61.3014 20.5114 60.7358 20.7546C60.1897 20.9784 59.4874 20.959 59.263 20.7158C58.9024 20.3267 59.1362 19.4508 59.5948 19.4508C60.3554 19.4508 61.194 18.7892 61.6819 17.8065C61.9744 17.2031 61.9938 17.1058 61.9938 16.0943C61.9938 15.2769 61.955 14.9071 61.8083 14.5374C61.3597 13.3697 60.5504 12.6401 59.6824 12.6401C59.0288 12.6401 58.6194 12.8346 58.0637 13.4183C57.6832 13.8173 57.5176 13.9146 57.2639 13.9245C56.9032 13.9343 56.4839 13.5547 56.4839 13.2142C56.4839 12.9809 56.7082 12.5234 56.9131 12.3581C57.1375 12.1734 57.5374 11.2489 57.6155 10.7431C57.8984 8.84575 55.2846 7.22087 53.5292 8.19367C52.905 8.54403 52.6517 9.08895 52.5931 10.2563C52.5344 11.2975 52.4468 11.5115 52.0176 11.6768C51.8519 11.7448 51.6859 11.7155 51.452 11.6087C50.4279 11.1223 49.1406 12.4554 48.8675 14.2942C48.77 14.9071 48.7795 15.1215 48.9162 15.6466C49.1013 16.3568 49.4525 16.9211 49.9693 17.3395L50.33 17.6314L50.7006 17.349C51.1298 17.0279 52.2316 15.9381 52.8753 15.1891C53.3921 14.6054 53.7627 14.5176 54.1138 14.8973C54.6013 15.4517 54.4551 15.8119 53.1678 17.145C51.6268 18.7505 50.3593 19.6552 46.6338 21.7863C43.3766 23.6449 42.1964 24.5109 40.9578 25.9313C38.6757 28.5681 37.6615 31.6914 37.3202 37.1892L37.252 38.2304H36.501H35.7503L35.7796 37.5202C35.9746 33.0347 36.7257 29.7553 38.1105 27.313C39.466 24.9095 41.2408 23.1775 44.0009 21.5427C44.6152 21.1828 45.1713 20.842 45.2295 20.7933C45.3076 20.7348 45.2783 20.4236 45.1419 19.6742C44.8689 18.1854 44.8494 14.5853 45.1126 13.1743C45.3663 11.7733 45.7075 10.6736 46.195 9.65211C47.5212 6.85949 49.6471 5.08869 52.3973 4.51451C53.2554 4.33021 55.2351 4.34009 56.0836 4.51489Z" fill="#6750A4"/>
<path d="M55.5862 16.7554L56.0056 17.1837L54.0357 18.7599C52.0949 20.3362 51.8024 20.6478 51.8024 21.1828C51.8024 21.3287 51.7049 21.3873 51.4318 21.4359C50.7783 21.5526 50.242 22.2141 50.242 22.9342C50.242 23.6251 50.6027 24.1214 51.3438 24.4618C51.5876 24.5785 52.1532 25.1139 52.9335 25.9701C53.5966 26.7095 54.3477 27.4878 54.6013 27.7021C55.0401 28.0718 55.0595 28.1106 54.9133 28.2569C54.7571 28.4127 54.6988 28.3736 54.0064 27.7314C52.3097 26.165 50.2226 25.7269 47.7455 26.4082C44.0786 27.4103 41.2796 29.4828 39.9535 32.1489C39.2512 33.5598 39.1049 34.27 39.0467 36.4592L39.0074 38.3273H38.51H38.0225L38.0812 36.6439C38.1886 33.4815 38.7347 31.0978 39.8366 28.9474C40.4703 27.7021 41.2214 26.6997 42.3038 25.6782C43.3572 24.6663 44.1178 24.1506 46.39 22.8662C49.7838 20.9396 52.4072 19.0617 54.1721 17.3004C54.6988 16.7653 55.1376 16.3371 55.157 16.3371C55.1669 16.3371 55.3619 16.5221 55.5862 16.7554Z" fill="#6750A4"/>
<path d="M57.0004 18.3028C57.2346 18.4875 57.3515 18.877 57.2441 19.1688C57.1954 19.3052 56.8636 19.6358 56.5129 19.8984L55.8593 20.3753L56.8248 20.5019C57.5659 20.5991 57.8489 20.677 58.0146 20.8328C58.2877 21.0859 58.317 21.6111 58.0633 21.8642C57.9072 22.02 57.6829 22.0393 55.518 22.0101C53.2165 21.9907 53.1289 21.9808 52.9046 21.7764C52.7583 21.6305 52.6803 21.4458 52.6803 21.2413C52.6803 20.8815 52.8459 20.7356 55.128 19.0328C56.2885 18.1569 56.6298 18.0303 57.0004 18.3028Z" fill="#6750A4"/>
<path d="M52.2411 22.2434C52.3485 22.2727 53.1384 22.5839 53.9965 22.9244C55.7907 23.6639 56.6004 23.9265 57.0392 23.9265C57.9852 23.9265 58.4727 24.6758 57.8973 25.2401C57.6048 25.5418 57.2148 25.5513 56.1419 25.2986L55.3619 25.114L55.713 25.4157C55.908 25.5909 56.2493 25.8827 56.4736 26.0773C56.9516 26.4858 57.0003 26.8266 56.6298 27.1865C56.0836 27.7409 55.4205 27.3518 53.597 25.4351C52.8265 24.6276 52.1147 23.9656 51.7441 23.7323C51.1004 23.3333 50.9542 23.0608 51.1199 22.6231C51.2661 22.2336 51.6561 22.0975 52.2411 22.2434Z" fill="#6750A4"/>
</g>
<g filter="url(#filter2_ddd_54200_34917)">
<ellipse cx="21.0058" cy="23.019" rx="9.94043" ry="16.017" fill="white"/>
<path d="M20.9164 4.51489C17.2593 5.31289 14.0411 7.95921 12.1296 11.7638C9.01869 17.9623 8.04331 25.0167 9.49667 30.8447C10.4427 34.6493 12.3737 37.899 14.7628 39.709C15.6015 40.3413 17.1519 41.1001 18.1273 41.3532C19.8439 41.7815 21.9405 41.6937 23.8421 41.0907C26.3093 40.3124 28.962 38.4538 30.415 36.4786C31.0487 35.6126 31.6924 34.2795 31.8874 33.3941C32.0824 32.5186 32.0336 31.0199 31.7899 30.3583C31.7023 30.1246 31.6436 29.9107 31.6631 29.8913C31.6825 29.8719 32.0142 30.0859 32.4042 30.3583C33.9646 31.4482 34.8326 32.6839 35.3102 34.5132C35.5151 35.3014 35.5638 35.6905 35.5737 36.8875L35.5833 38.3277H36.3244H37.0656L37.1238 37.6269C37.2019 36.6735 37.0362 35.0582 36.7533 33.9782C36.0414 31.2927 34.4129 29.4733 31.4966 28.111C29.1463 27.0117 27.1765 26.6222 25.8306 26.9824C24.8457 27.245 23.4022 28.1596 23.1585 28.6753C22.8172 29.3855 23.344 30.6798 24.1434 31.0883C24.514 31.2829 24.9919 31.2536 25.8112 31.0203C27.5178 30.5145 28.444 31.3414 27.976 32.937C27.7516 33.7057 27.5079 34.1728 27.0985 34.5816C26.328 35.3504 25.6455 34.8442 25.1576 33.1414C25.0114 32.6452 24.9432 32.5578 24.6503 32.4312C24.3673 32.3146 24.2698 32.3146 24.0459 32.4118C23.6654 32.5965 23.5778 32.9568 23.7241 33.6769C23.9385 34.7762 23.5679 35.7201 22.6417 36.3817C21.4324 37.2572 19.7745 37.1212 18.7017 36.0507C17.9704 35.3306 17.668 34.2507 18.058 33.7445C18.3311 33.3941 18.3699 33.2095 18.2629 32.8785C18.0386 32.2462 17.4924 32.2264 16.8099 32.8298C16.4207 33.1802 16.2451 33.2676 15.9621 33.2676C14.9479 33.2676 13.9725 31.7788 13.9531 30.2025C13.9432 29.4243 14.158 28.8889 14.6649 28.4705C14.9967 28.1881 15.7961 27.9157 16.2935 27.9157C16.9177 27.9157 17.3077 27.215 17.0053 26.6507C16.8103 26.2908 16.5567 26.2323 15.7279 26.3683C14.6748 26.5336 14.0213 26.3877 13.4363 25.8527C12.8707 25.3279 12.6658 24.7735 12.6658 23.7323C12.6658 22.37 13.2314 21.2999 14.2163 20.7937C14.7137 20.5311 15.6986 20.5114 16.2642 20.7546C16.8103 20.9784 17.5126 20.959 17.7369 20.7158C18.0976 20.3267 17.8638 19.4508 17.4052 19.4508C16.6446 19.4508 15.806 18.7892 15.3181 17.8065C15.0256 17.2031 15.0062 17.1058 15.0062 16.0943C15.0062 15.2769 15.045 14.9071 15.1917 14.5374C15.6403 13.3697 16.4496 12.6401 17.3176 12.6401C17.9712 12.6401 18.3806 12.8346 18.9363 13.4183C19.3167 13.8173 19.4824 13.9146 19.7361 13.9245C20.0967 13.9343 20.5161 13.5547 20.5161 13.2142C20.5161 12.9809 20.2917 12.5234 20.0868 12.3581C19.8625 12.1734 19.4626 11.2489 19.3845 10.7431C19.1016 8.84575 21.7154 7.22087 23.4708 8.19367C24.095 8.54403 24.3483 9.08895 24.4069 10.2563C24.4656 11.2975 24.5532 11.5115 24.9824 11.6768C25.1481 11.7448 25.3141 11.7155 25.548 11.6087C26.5721 11.1223 27.8594 12.4554 28.1325 14.2942C28.23 14.9071 28.2205 15.1215 28.0837 15.6466C27.8987 16.3568 27.5475 16.9211 27.0307 17.3395L26.67 17.6314L26.2994 17.349C25.8702 17.0279 24.7684 15.9381 24.1247 15.1891C23.6079 14.6054 23.2373 14.5176 22.8862 14.8973C22.3987 15.4517 22.5449 15.8119 23.8322 17.145C25.3732 18.7505 26.6407 19.6552 30.3662 21.7863C33.6234 23.6449 34.8036 24.5109 36.0422 25.9313C38.3243 28.5681 39.3385 31.6914 39.6798 37.1892L39.7479 38.2304H40.499H41.2497L41.2203 37.5202C41.0253 33.0347 40.2743 29.7553 38.8895 27.313C37.534 24.9095 35.7592 23.1775 32.9991 21.5427C32.3848 21.1828 31.8287 20.842 31.7705 20.7933C31.6924 20.7348 31.7217 20.4236 31.8581 19.6742C32.1311 18.1854 32.1506 14.5853 31.8874 13.1743C31.6337 11.7733 31.2925 10.6736 30.805 9.65211C29.4788 6.85949 27.3529 5.08869 24.6027 4.51451C23.7446 4.33021 21.7649 4.34009 20.9164 4.51489Z" fill="#6750A4"/>
<path d="M21.4138 16.7554L20.9944 17.1837L22.9643 18.7599C24.9051 20.3362 25.1976 20.6478 25.1976 21.1828C25.1976 21.3287 25.2951 21.3873 25.5682 21.4359C26.2217 21.5526 26.758 22.2141 26.758 22.9342C26.758 23.6251 26.3973 24.1214 25.6562 24.4618C25.4124 24.5785 24.8468 25.1139 24.0665 25.9701C23.4034 26.7095 22.6523 27.4878 22.3987 27.7021C21.9599 28.0718 21.9405 28.1106 22.0867 28.2569C22.2429 28.4127 22.3012 28.3736 22.9936 27.7314C24.6903 26.165 26.7774 25.7269 29.2545 26.4082C32.9214 27.4103 35.7204 29.4828 37.0465 32.1489C37.7488 33.5598 37.8951 34.27 37.9533 36.4592L37.9926 38.3273H38.49H38.9775L38.9188 36.6439C38.8114 33.4815 38.2653 31.0978 37.1634 28.9474C36.5297 27.7021 35.7786 26.6997 34.6962 25.6782C33.6428 24.6663 32.8822 24.1506 30.61 22.8662C27.2162 20.9396 24.5928 19.0617 22.8279 17.3004C22.3012 16.7653 21.8624 16.3371 21.843 16.3371C21.8331 16.3371 21.6381 16.5221 21.4138 16.7554Z" fill="#6750A4"/>
<path d="M19.9996 18.3028C19.7654 18.4875 19.6485 18.877 19.7559 19.1688C19.8046 19.3052 20.1364 19.6358 20.4871 19.8984L21.1407 20.3753L20.1752 20.5019C19.4341 20.5991 19.1511 20.677 18.9854 20.8328C18.7123 21.0859 18.683 21.6111 18.9367 21.8642C19.0928 22.02 19.3171 22.0393 21.4819 22.0101C23.7835 21.9907 23.8711 21.9808 24.0954 21.7764C24.2417 21.6305 24.3197 21.4458 24.3197 21.2413C24.3197 20.8815 24.1541 20.7356 21.8719 19.0328C20.7115 18.1569 20.3702 18.0303 19.9996 18.3028Z" fill="#6750A4"/>
<path d="M24.7589 22.2434C24.6515 22.2727 23.8616 22.5839 23.0035 22.9244C21.2093 23.6639 20.3996 23.9265 19.9608 23.9265C19.0148 23.9265 18.5273 24.6758 19.1027 25.2401C19.3952 25.5418 19.7852 25.5513 20.8581 25.2986L21.6381 25.114L21.287 25.4157C21.092 25.5909 20.7507 25.8827 20.5264 26.0773C20.0484 26.4858 19.9997 26.8266 20.3702 27.1865C20.9164 27.7409 21.5795 27.3518 23.403 25.4351C24.1735 24.6276 24.8853 23.9656 25.2559 23.7323C25.8995 23.3333 26.0458 23.0608 25.8801 22.6231C25.7339 22.2336 25.3439 22.0975 24.7589 22.2434Z" fill="#6750A4"/>
</g>
</g>
<defs>
<filter id="filter0_dd_54200_34917" x="2" y="1" width="73" height="46" filterUnits="userSpaceOnUse" color-interpolation-filters="sRGB">
<feFlood flood-opacity="0" result="BackgroundImageFix"/>
<feColorMatrix in="SourceAlpha" type="matrix" values="0 0 0 0 0 0 0 0 0 0 0 0 0 0 0 0 0 0 127 0" result="hardAlpha"/>
<feMorphology radius="1" operator="dilate" in="SourceAlpha" result="effect1_dropShadow_54200_34917"/>
<feOffset dy="1"/>
<feGaussianBlur stdDeviation="1.5"/>
<feColorMatrix type="matrix" values="0 0 0 0 0 0 0 0 0 0 0 0 0 0 0 0 0 0 0.15 0"/>
<feBlend mode="normal" in2="BackgroundImageFix" result="effect1_dropShadow_54200_34917"/>
<feColorMatrix in="SourceAlpha" type="matrix" values="0 0 0 0 0 0 0 0 0 0 0 0 0 0 0 0 0 0 127 0" result="hardAlpha"/>
<feOffset dy="1"/>
<feGaussianBlur stdDeviation="1"/>
<feColorMatrix type="matrix" values="0 0 0 0 0 0 0 0 0 0 0 0 0 0 0 0 0 0 0.3 0"/>
<feBlend mode="normal" in2="effect1_dropShadow_54200_34917" result="effect2_dropShadow_54200_34917"/>
<feBlend mode="normal" in="SourceGraphic" in2="effect2_dropShadow_54200_34917" result="shape"/>
</filter>
<filter id="filter1_ddd_54200_34917" x="24.9141" y="0" width="54.0859" height="54" filterUnits="userSpaceOnUse" color-interpolation-filters="sRGB">
<feFlood flood-opacity="0" result="BackgroundImageFix"/>
<feColorMatrix in="SourceAlpha" type="matrix" values="0 0 0 0 0 0 0 0 0 0 0 0 0 0 0 0 0 0 127 0" result="hardAlpha"/>
<feOffset/>
<feGaussianBlur stdDeviation="0.5"/>
<feColorMatrix type="matrix" values="0 0 0 0 0 0 0 0 0 0 0 0 0 0 0 0 0 0 0.5 0"/>
<feBlend mode="normal" in2="BackgroundImageFix" result="effect1_dropShadow_54200_34917"/>
<feColorMatrix in="SourceAlpha" type="matrix" values="0 0 0 0 0 0 0 0 0 0 0 0 0 0 0 0 0 0 127 0" result="hardAlpha"/>
<feOffset/>
<feGaussianBlur stdDeviation="1"/>
<feColorMatrix type="matrix" values="0 0 0 0 0 0 0 0 0 0 0 0 0 0 0 0 0 0 0.5 0"/>
<feBlend mode="normal" in2="effect1_dropShadow_54200_34917" result="effect2_dropShadow_54200_34917"/>
<feColorMatrix in="SourceAlpha" type="matrix" values="0 0 0 0 0 0 0 0 0 0 0 0 0 0 0 0 0 0 127 0" result="hardAlpha"/>
<feOffset dy="4"/>
<feGaussianBlur stdDeviation="4"/>
<feColorMatrix type="matrix" values="0 0 0 0 0 0 0 0 0 0 0 0 0 0 0 0 0 0 0.5 0"/>
<feBlend mode="normal" in2="effect2_dropShadow_54200_34917" result="effect3_dropShadow_54200_34917"/>
<feBlend mode="normal" in="SourceGraphic" in2="effect3_dropShadow_54200_34917" result="shape"/>
</filter>
<filter id="filter2_ddd_54200_34917" x="-2" y="0" width="54.0859" height="54" filterUnits="userSpaceOnUse" color-interpolation-filters="sRGB">
<feFlood flood-opacity="0" result="BackgroundImageFix"/>
<feColorMatrix in="SourceAlpha" type="matrix" values="0 0 0 0 0 0 0 0 0 0 0 0 0 0 0 0 0 0 127 0" result="hardAlpha"/>
<feOffset/>
<feGaussianBlur stdDeviation="0.5"/>
<feColorMatrix type="matrix" values="0 0 0 0 0 0 0 0 0 0 0 0 0 0 0 0 0 0 0.5 0"/>
<feBlend mode="normal" in2="BackgroundImageFix" result="effect1_dropShadow_54200_34917"/>
<feColorMatrix in="SourceAlpha" type="matrix" values="0 0 0 0 0 0 0 0 0 0 0 0 0 0 0 0 0 0 127 0" result="hardAlpha"/>
<feOffset/>
<feGaussianBlur stdDeviation="1"/>
<feColorMatrix type="matrix" values="0 0 0 0 0 0 0 0 0 0 0 0 0 0 0 0 0 0 0.5 0"/>
<feBlend mode="normal" in2="effect1_dropShadow_54200_34917" result="effect2_dropShadow_54200_34917"/>
<feColorMatrix in="SourceAlpha" type="matrix" values="0 0 0 0 0 0 0 0 0 0 0 0 0 0 0 0 0 0 127 0" result="hardAlpha"/>
<feOffset dy="4"/>
<feGaussianBlur stdDeviation="4"/>
<feColorMatrix type="matrix" values="0 0 0 0 0 0 0 0 0 0 0 0 0 0 0 0 0 0 0.5 0"/>
<feBlend mode="normal" in2="effect2_dropShadow_54200_34917" result="effect3_dropShadow_54200_34917"/>
<feBlend mode="normal" in="SourceGraphic" in2="effect3_dropShadow_54200_34917" result="shape"/>
</filter>
</defs>
</svg>
