<svg width="268" height="141" viewBox="0 0 268 141" fill="none" xmlns="http://www.w3.org/2000/svg">
<path fill-rule="evenodd" clip-rule="evenodd" d="M188.286 139.132C145.303 147.985 117.415 122.493 60.6447 122.493C41.245 122.493 -5.64673 133.407 1.61369 65.9632C5.7337 27.6911 50.1394 10.3217 91.6374 32.6914C103.849 37.4624 113.489 35.9838 123.957 31.2433C134.424 26.5028 147.887 5.34016 173.259 0.986455C249.614 -12.1153 334.149 109.093 188.286 139.132Z" fill="#6750A4"/>
<path fill-rule="evenodd" clip-rule="evenodd" d="M186.72 52.6299C189.713 54.5985 192.717 56.6812 196.161 57.6699C199.604 58.6585 203.651 58.3562 206.303 55.949C217.004 46.2351 234.237 44.6109 246.568 52.1541C258.898 59.6973 265.284 75.7707 261.489 89.7092C257.694 103.648 244.037 114.274 229.581 114.536C222.091 114.673 215.165 118.25 208.008 120.461C200.851 122.672 192.243 123.239 186.646 118.264C180.613 112.903 181.302 101.855 187.953 97.2827C177.5 98.0651 167.048 98.8476 156.595 99.6301C158.894 100.561 161.342 101.614 162.66 103.714C163.978 105.814 163.373 109.249 160.972 109.873C152.031 112.197 142.875 107.962 134.293 104.544C125.71 101.126 115.368 98.6161 107.715 103.787C90.4669 115.442 67.6804 113.507 47.1377 110.109C42.2094 109.293 36.281 107.5 35.2563 102.615C25.8239 104.389 16.2049 105.171 6.60943 104.944C4.26719 104.889 1.50217 104.52 0.40753 102.451C-1.01081 99.7691 1.53528 96.7268 4.01489 94.9771C11.587 89.6339 20.8319 86.6942 30.1022 86.6816C32.7428 86.6781 34.5057 83.9212 35.178 81.37C35.8502 78.8188 36.0386 75.9799 37.7532 73.9736C31.9225 73.0992 25.7454 74.8775 21.2745 78.7177C20.4447 79.4304 19.044 78.7148 18.6957 77.6784C18.3474 76.642 18.7062 75.5146 19.0746 74.4851C21.1376 68.7207 23.7241 62.864 28.4127 58.9226C33.1012 54.9812 40.4266 53.5596 45.3692 57.1779C46.9198 58.313 49.5524 59.77 53.2672 61.549C57.0759 60.9735 59.9079 60.5155 61.7632 60.1747C67.382 59.1428 72.5917 56.5935 77.6849 54.0081C95.4326 44.999 113.63 34.9688 133.529 34.403C152.566 33.8616 170.815 42.1655 186.72 52.6299ZM206.86 68.2479L208.645 72.7414C208.733 72.9617 208.827 73.1919 209.012 73.3409C209.235 73.5217 209.542 73.5459 209.827 73.5868C212.01 73.9009 213.72 75.5567 215.267 77.1268C217.248 79.1379 219.23 81.1491 221.211 83.1602C221.805 83.7628 222.792 83.1112 223.36 82.4847C224.638 81.0761 225.939 79.6312 226.677 77.879C227.415 76.1267 227.495 73.9777 226.395 72.4264C225.742 71.5045 224.746 70.8828 223.726 70.3956C222.043 69.5914 220.216 69.0869 218.358 68.913C216.546 68.7435 214.722 68.886 212.902 68.8725C210.874 68.8576 208.848 68.6481 206.86 68.2479Z" fill="white"/>
<path fill-rule="evenodd" clip-rule="evenodd" d="M35.2562 102.615C25.8238 104.389 16.2048 105.171 6.60934 104.944C3.848 100.924 33.7292 93.5162 34.8127 98.3996C35.6695 102.261 35.7087 104.772 35.2562 102.615Z" fill="#E7EAEE"/>
<path fill-rule="evenodd" clip-rule="evenodd" d="M179.965 89.5904C180.973 89.4827 184.978 88.5018 189.184 88.9565C191.444 87.7972 202.275 88.7079 208.74 89.9734C212.89 90.7856 223.408 91.3253 227.227 93.2717C233.857 96.6505 234.01 98.739 233.012 99.1865C230.178 100.457 226.764 101.084 224.929 101.117C221.625 101.177 214.979 98.1261 207.688 96.2148C204.432 95.3613 202.039 94.6364 200.154 93.9331L200.462 93.7983C196.383 95.6377 192.164 95.9309 187.953 97.2827C177.5 98.0651 167.048 98.8476 156.595 99.6301C158.894 100.561 124.302 87.9785 134.293 86.1426C134.909 86.0295 135.587 85.9608 136.324 85.9299C145.68 85.5381 164.269 91.2661 179.965 89.5904Z" fill="#E7EAEE"/>
<path fill-rule="evenodd" clip-rule="evenodd" d="M86.6134 74.057C86.7409 74.2846 86.6444 74.5873 86.4529 74.7646C86.2615 74.9419 85.9984 75.0185 85.7419 75.0666C83.8521 75.421 81.7875 74.3912 80.9355 72.6691C80.8405 72.4771 80.7577 72.2663 80.7866 72.0541C80.8156 71.8419 80.994 71.6366 81.208 71.6494C81.7581 72.2557 82.3162 72.8689 83.0012 73.3176C83.6861 73.7664 84.5234 74.0399 85.329 73.892C85.7862 73.8081 86.3863 73.6519 86.6134 74.057V74.057Z" fill="#00160A"/>
<path fill-rule="evenodd" clip-rule="evenodd" d="M87.8518 97.5474C87.8784 97.0158 88.5452 96.7936 89.0777 96.7739C91.463 96.6855 93.6844 97.8538 95.8875 98.7716C98.0907 99.6894 100.656 100.367 102.808 99.3337C103.257 99.1181 103.728 98.8236 104.215 98.9277C103.407 100.494 101.475 101.205 99.7137 101.108C97.9526 101.012 96.3024 100.268 94.6786 99.5798C93.0548 98.8918 91.3467 98.2373 89.5857 98.3356C89.2245 98.3557 88.8546 98.4068 88.5065 98.3085C88.1584 98.2103 87.8337 97.9084 87.8518 97.5474Z" fill="#00160A"/>
<path fill-rule="evenodd" clip-rule="evenodd" d="M92.0276 102.007C90.3821 101.528 88.4584 101.768 87.1068 100.715C86.9417 100.586 86.7786 100.417 86.7722 100.208C86.7632 99.9148 87.0794 99.7003 87.3729 99.6927C87.6664 99.6851 87.9419 99.8189 88.2175 99.92C89.2237 100.289 90.3314 100.24 91.3817 100.454C92.9575 100.774 94.3451 101.672 95.8294 102.291C97.3136 102.909 99.0937 103.226 100.476 102.404C101.033 102.073 101.766 101.578 102.228 102.033C100.724 103.745 98.1764 104.459 96.0001 103.777C94.6143 103.344 93.4217 102.414 92.0276 102.007Z" fill="#00160A"/>
<path fill-rule="evenodd" clip-rule="evenodd" d="M44.6075 84.672C44.343 84.334 44.3452 83.8435 44.5141 83.4491C44.6829 83.0546 44.9928 82.7388 45.3131 82.453C46.8336 81.0961 48.9379 80.1775 50.9118 80.6875C52.3912 81.0697 53.5616 82.1777 54.5974 83.3001C55.0408 83.7806 55.4984 84.4688 55.1664 85.032C54.8118 85.6335 53.9217 85.5063 53.2474 85.3236C51.1542 84.7566 48.9358 84.4225 46.8206 84.9008C46.0533 85.0744 45.0921 85.2912 44.6075 84.672V84.672Z" fill="#00160A"/>
<path fill-rule="evenodd" clip-rule="evenodd" d="M78.889 105.046C79.1807 105.222 79.1404 105.692 78.8974 105.931C78.6544 106.169 78.2963 106.238 77.9604 106.296C76.0773 106.618 74.1942 106.941 72.3111 107.263C71.918 107.331 71.4786 107.389 71.1507 107.162C70.8229 106.935 70.8135 106.304 71.2037 106.221C73.5646 105.723 75.9442 105.314 78.3357 104.994C78.5231 104.969 78.7272 104.948 78.889 105.046V105.046Z" fill="#00160A"/>
<path fill-rule="evenodd" clip-rule="evenodd" d="M74.0837 85.3889C73.6695 85.5424 73.2119 85.1428 73.156 84.7049C73.1001 84.267 73.3268 83.8433 73.5893 83.4882C74.8107 81.8358 76.9873 80.9898 79.0276 81.244C81.0678 81.4981 82.9211 82.7895 83.9928 84.5425C84.1582 84.8129 84.3115 85.1237 84.2487 85.4344C84.1808 85.7708 83.8661 86.0146 83.5328 86.0979C83.1996 86.1811 82.8489 86.1334 82.5104 86.0749C81.1016 85.8315 79.728 85.4101 78.3181 85.1731C76.9082 84.9361 75.4242 84.8921 74.0837 85.3889Z" fill="#00160A"/>
<path fill-rule="evenodd" clip-rule="evenodd" d="M47.4578 74.0815C47.6181 73.6125 48.2968 73.7285 48.7833 73.825C50.2998 74.1256 51.7831 73.2809 53.0987 72.4696C53.2744 72.3613 53.5081 72.5671 53.5043 72.7732C53.5004 72.9794 53.3519 73.1512 53.2067 73.2978C51.8951 74.6222 49.9337 75.5282 48.1603 74.9518C47.764 74.823 47.3232 74.4756 47.4578 74.0815Z" fill="#00160A"/>
<path fill-rule="evenodd" clip-rule="evenodd" d="M100.134 82.1077C99.6219 82.0103 99.3566 81.39 99.4523 80.8785C99.5481 80.367 99.8957 79.945 100.224 79.5408C101.463 78.014 102.592 76.3904 103.482 74.6374C104.247 73.1298 104.834 71.531 105.694 70.0755C108.156 65.9111 112.932 63.2188 117.773 63.266C115.833 61.8786 113.54 61.058 111.217 60.515C104.031 58.8354 96.2677 59.7467 89.6676 63.0446C88.6245 63.5659 87.607 64.1456 86.5191 64.5659C86.0173 64.7598 85.4622 64.9199 84.9482 64.761C84.4342 64.6021 84.0308 63.9974 84.2698 63.5158C84.4076 63.2382 84.7045 63.083 84.9826 62.9459C87.7945 61.5597 90.6181 60.1687 93.5985 59.1956C100.266 57.0186 107.633 57.0405 114.287 59.2572C116.52 60.0009 118.854 61.1565 119.82 63.3005C119.969 63.6294 119.982 64.1552 119.625 64.209C115.791 64.7863 111.889 66.1121 109.242 68.9436C105.814 72.6108 104.984 78.2416 101.267 81.6157C100.95 81.903 100.554 82.1877 100.134 82.1077V82.1077Z" fill="#00160A"/>
<path fill-rule="evenodd" clip-rule="evenodd" d="M156.595 99.6301C158.894 100.561 161.342 101.614 162.66 103.714C163.978 105.814 163.373 109.249 160.972 109.873C152.031 112.197 142.875 107.962 134.293 104.544C125.71 101.126 115.368 98.6161 107.715 103.787C90.4669 115.442 67.6804 113.507 47.1377 110.109C42.2094 109.293 36.281 107.5 35.2563 102.615C25.8239 104.389 16.2049 105.171 6.60943 104.944C4.26719 104.889 1.50217 104.52 0.40753 102.451C-1.01081 99.7691 1.53528 96.7268 4.01489 94.9771C11.587 89.6339 20.8319 86.6942 30.1022 86.6816C32.7428 86.6781 34.5057 83.9212 35.178 81.37C35.8502 78.8188 36.0386 75.9799 37.7532 73.9736C31.9225 73.0992 25.7454 74.8775 21.2745 78.7177C20.4447 79.4304 19.044 78.7148 18.6957 77.6784C18.3474 76.642 18.7062 75.5146 19.0746 74.4851C21.1376 68.7207 23.7241 62.864 28.4127 58.9226C33.1012 54.9812 38.2906 53.4853 45.3372 56.6911C47.1825 57.5306 49.818 59.0224 53.2439 61.1663C57.03 60.853 59.8698 60.5225 61.7632 60.1747C67.382 59.1428 72.5917 56.5935 77.6849 54.0081C95.4326 44.999 113.63 34.9688 133.529 34.403C152.566 33.8616 170.815 42.1655 186.72 52.6299C189.713 54.5985 192.717 56.6812 196.161 57.6699C199.604 58.6585 203.651 58.3562 206.303 55.949C217.004 46.2351 234.237 44.6109 246.568 52.1541C258.898 59.6973 265.284 75.7707 261.489 89.7092C257.694 103.648 244.037 114.274 229.581 114.536C222.091 114.673 215.165 118.25 208.008 120.461C200.851 122.672 192.243 123.239 186.646 118.264C180.613 112.903 181.302 101.855 187.953 97.2827C177.5 98.0651 167.048 98.8476 156.595 99.6301ZM217.101 80.3638C211.826 75.0628 203.956 72.4707 196.56 73.5983C200.141 72.4866 203.978 72.2065 207.683 72.7862C197.181 57.6343 180.233 48.1704 162.958 41.7048C154.563 38.5627 145.82 35.9799 136.858 35.7822C125.19 35.5249 113.819 39.3136 103.041 43.7881C91.2128 48.699 79.7709 54.4836 68.342 60.2622C71.8683 60.0821 75.4425 61.6302 77.7214 64.3248C68.1487 60.381 56.8096 60.9891 47.7144 65.934C47.7579 64.1274 49.203 62.4528 50.9851 62.1438C45.7807 57.5624 37.7851 56.4504 31.526 59.4375C25.267 62.4245 21.1082 69.3371 21.4046 76.2607C26.6904 71.8933 34.3143 70.5427 40.781 72.8282C36.9319 79.2448 34.9449 86.7619 35.1208 94.2405C37.1434 93.3892 39.6357 93.7896 41.2893 95.2314C39.4418 95.4299 37.5943 95.6284 35.7468 95.827C35.8249 96.6692 35.9029 97.5114 35.981 98.3537C37.936 98.0658 39.8909 97.7779 41.8458 97.4899C40.5877 98.9359 38.8136 99.9241 36.9211 100.233C36.6835 102.639 38.3552 104.91 40.4525 106.116C42.5498 107.322 45.0129 107.681 47.4092 108.018C53.3817 108.859 59.3542 109.7 65.3267 110.54C63.9415 108.979 63.7147 106.467 62.8105 104.729C61.6392 102.479 59.9481 101.563 59.1002 98.5772C58.8077 97.5473 58.1335 96.0971 59.077 95.4422C59.4732 95.1672 59.9894 95.1566 60.472 95.1561C62.4435 95.154 64.4151 95.1519 66.3867 95.1499C67.0237 95.1492 67.69 95.1554 68.2531 95.4529C69.9594 96.3546 69.4205 99.0179 68.1462 100.466C66.8719 101.915 65.0497 103.072 64.6144 104.951C64.1673 106.881 65.4679 108.882 67.1953 109.854C68.9226 110.827 70.9779 110.992 72.9596 111.06C77.1364 111.202 81.3246 111.009 85.4704 110.482C95.9072 109.156 107.026 104.907 111.871 95.5759C111.578 97.9279 110.347 100.15 108.509 101.648C116.113 98.8501 124.724 98.8815 132.308 101.735C139.499 104.441 146.323 109.668 153.95 108.73C153.623 108.465 153.496 108.007 153.17 107.742C152.28 107.021 151.19 106.493 150.3 105.772C153.02 106.766 155.739 107.76 158.458 108.754C158.15 108.302 158.458 107.846 157.883 107.155C157.308 106.464 156.052 105.231 155.311 104.147C157.371 104.745 159.176 106.173 160.231 108.039C161.111 107.824 161.991 107.609 162.872 107.393C158.403 101.368 152.226 96.6217 145.25 93.8541C141.865 92.5113 137.669 90.9042 137.246 87.2905C144.854 94.6306 155.756 97.7617 166.329 97.9853C176.903 98.2088 187.336 95.8086 197.639 93.4226C195.28 92.2315 193.154 90.5839 191.412 88.5981C202.983 95.0754 215.931 99.0863 229.14 100.286C228.391 99.0173 227.642 97.7485 226.893 96.4796C228.531 96.5262 230.062 97.7679 230.445 99.3605C231.267 99.0372 232.089 98.7139 232.91 98.3906C231.767 97.2711 230.624 96.1516 229.481 95.032C231.32 94.5892 233.383 96.0059 233.628 97.8795C234.397 97.4797 235.032 96.827 235.41 96.0472C234.043 95.0135 232.676 93.9798 231.31 92.9462C233.381 92.904 235.461 93.5966 237.093 94.8724C235.162 90.1823 228.628 90.0705 224.288 87.4403C221.402 85.691 219.481 82.7558 217.101 80.3638ZM207.276 66.8884C209.857 67.5136 212.561 67.0294 215.217 67.0373C217.969 67.0455 220.711 67.5909 223.289 68.5516C224.881 69.1446 226.472 69.9412 227.507 71.2873C229.148 73.4209 229.005 76.516 227.861 78.9515C226.716 81.3869 224.735 83.3121 222.797 85.1797C226.866 86.9935 230.936 88.8073 235.006 90.6211C236.156 91.1336 237.399 91.7351 237.925 92.878C238.834 94.8545 237.069 97.0227 235.256 98.2273C229.601 101.985 221.909 102.446 215.845 99.3907C211.954 97.4303 207.64 96.4953 203.381 95.5787C201.055 95.0783 198.632 94.5782 196.322 95.1443C194.682 95.5462 193.136 96.4777 191.449 96.4204C189.941 96.3692 188.769 97.67 187.885 98.8918C184.978 102.912 182.581 108.049 184.283 112.708C185.454 115.911 188.419 118.219 191.652 119.314C194.885 120.409 198.378 120.44 201.784 120.223C206.048 119.952 210.391 119.276 214.135 117.221C216.572 115.882 218.754 113.964 221.451 113.281C224.686 112.462 228.094 113.561 231.423 113.318C234.074 113.125 236.582 112.088 239.009 111.006C244.938 108.362 250.867 105.242 255.072 100.3C261.343 92.9317 262.834 82.1341 259.838 72.9371C256.842 63.7401 249.762 56.1785 241.288 51.5015C238.958 50.2157 236.505 49.1231 233.922 48.4814C227.721 46.9408 220.935 48.1539 215.516 51.5364C212.726 53.2779 210.302 55.547 207.569 57.3753C204.835 59.2036 201.621 60.6118 198.347 60.2924C200.871 63.0783 203.621 66.0033 207.276 66.8884ZM12.1108 92.0785C8.31262 93.5578 4.51221 95.5209 2.10505 98.8078C3.2126 98.198 4.60333 98.1303 5.76495 98.6297C4.91816 99.0477 4.07137 99.4657 3.22458 99.8837C2.75021 100.118 2.25985 100.365 1.93039 100.778C1.60092 101.192 1.48178 101.823 1.80075 102.245C2.11971 102.667 2.92641 102.628 3.08071 102.123C3.64685 100.267 5.83307 99.0815 7.69881 99.6176C6.29751 100.415 4.76738 101.376 4.37963 102.94C4.58917 103.645 5.62183 103.76 6.22877 103.345C6.83571 102.929 7.1386 102.21 7.48765 101.563C7.83671 100.916 8.34366 100.253 9.07164 100.147C9.22527 100.124 9.40087 100.136 9.50756 100.249C9.69354 100.445 9.54001 100.766 9.36504 100.973C8.96858 101.44 8.46262 101.849 8.26771 102.43C8.07279 103.011 8.42111 103.823 9.03321 103.786C17.6279 103.261 26.2064 102.472 34.7523 101.419C35.0612 100.751 34.1229 100.208 33.3929 100.11C31.5399 99.8586 29.6338 100.007 27.842 100.541C28.1729 99.4409 29.2852 98.7204 30.4164 98.5141C31.5477 98.3077 32.7086 98.5199 33.8388 98.7318C33.8476 97.9387 33.6995 97.1443 33.4054 96.4076C31.6084 96.37 29.8271 95.7703 28.3738 94.7137C29.5886 94.2597 30.9998 94.3631 32.1352 94.9894C32.6774 95.2885 33.0814 94.4132 33.0903 93.7945C33.1194 91.7838 33.1485 89.7731 33.1776 87.7624C25.9786 87.9983 18.8216 89.4646 12.1108 92.0785ZM209.827 73.5868C212.01 73.9009 213.72 75.5567 215.267 77.1268C217.248 79.1379 219.23 81.1491 221.211 83.1602C221.805 83.7628 222.792 83.1112 223.36 82.4847C224.638 81.0761 225.939 79.6312 226.677 77.879C227.415 76.1267 227.495 73.9777 226.395 72.4264C225.742 71.5045 224.746 70.8828 223.726 70.3956C222.043 69.5914 220.216 69.0869 218.358 68.913C216.546 68.7435 214.722 68.886 212.902 68.8725C210.874 68.8576 208.848 68.6481 206.86 68.2479C207.455 69.7458 208.05 71.2436 208.645 72.7414C208.733 72.9617 208.827 73.1919 209.012 73.3409C209.235 73.5217 209.542 73.5459 209.827 73.5868Z" fill="#00160A"/>
</svg>
